<svg viewBox="0 0 635 410" version="1.1" xmlns="http://www.w3.org/2000/svg"><path fill="rgb(0,0,0)" stroke="rgb(0,0,0)" stroke-width="1" opacity="0" d="M 0 0 L 635 0 L 635 410 L 0 410 L 0 0 Z M 494 84 Q 492 87 487 85 L 480 88 L 476 93 L 457 131 L 456 136 L 453 139 L 450 148 L 441 163 L 441 166 L 422 204 Q 423 207 420 206 L 417 216 L 414 219 L 411 226 Q 412 229 409 228 L 409 231 L 402 244 L 403 251 L 418 281 L 419 286 L 423 292 L 424 298 L 429 299 L 437 287 L 449 259 L 454 253 L 464 230 L 480 203 L 500 163 L 501 158 L 517 128 L 518 123 L 524 111 L 527 108 L 528 102 L 530 100 L 534 89 L 533 86 L 529 85 L 494 84 Z M 181 87 L 178 88 L 164 118 Q 165 121 162 120 Q 160 130 154 139 L 155 144 L 168 170 Q 167 172 170 171 L 173 180 Q 172 183 175 182 L 177 190 L 186 206 L 189 216 L 193 222 L 195 229 L 199 235 L 207 254 L 209 256 L 196 255 L 193 253 L 174 253 L 171 254 L 170 259 L 162 272 L 160 279 L 156 284 L 153 292 L 144 307 L 143 312 L 145 313 L 218 313 L 217 308 L 217 302 L 230 302 L 232 305 L 234 312 L 244 331 L 251 349 L 254 352 L 258 363 L 260 366 L 263 368 L 311 368 L 310 359 L 301 338 L 287 310 L 280 292 L 277 288 L 257 240 L 252 232 L 251 227 L 234 194 L 228 177 L 207 135 L 198 112 L 193 104 Q 194 100 191 101 L 190 96 L 186 89 Q 185 86 181 87 Z M 146 157 L 143 158 L 136 173 Q 137 176 134 175 L 125 198 L 122 201 L 119 210 L 113 221 Q 114 223 111 222 L 110 228 L 91 265 Q 92 268 89 267 L 85 277 Q 86 280 83 279 L 74 302 L 71 305 L 69 312 L 66 315 L 57 336 L 46 356 Q 47 359 44 358 L 41 368 L 91 368 L 95 367 L 146 264 Q 145 260 148 261 L 163 229 L 171 216 L 171 211 L 169 205 L 153 172 L 149 167 L 148 159 L 146 157 Z M 346 176 L 339 190 L 324 212 L 321 218 L 321 223 L 310 239 Q 311 241 309 240 L 306 243 L 290 277 Q 288 283 291 285 Q 290 288 293 287 L 296 297 Q 301 301 302 310 L 305 313 L 308 322 Q 307 324 310 323 Q 311 332 316 338 L 317 344 L 322 345 L 324 343 L 325 337 L 340 309 Q 340 302 343 300 Q 342 297 345 298 L 348 291 Q 346 285 350 286 L 349 285 L 352 284 L 353 288 L 354 289 Q 351 288 352 292 L 354 292 L 353 294 L 364 317 Q 363 319 366 318 L 367 324 L 373 334 L 380 352 L 383 355 L 387 366 Q 388 369 393 368 L 418 319 L 415 307 L 395 267 Q 396 264 393 265 L 391 258 L 375 226 L 374 221 L 369 213 L 368 208 L 363 200 L 362 195 L 359 192 L 353 180 Q 352 175 346 176 Z "></path><path fill="rgb(72,51,18)" stroke="rgb(72,51,18)" stroke-width="1" opacity="0.9921568627450981" d="M 181.5 89 Q 184.3 90.3 182 91.5 L 159 137.5 L 159 141.5 L 183 190.5 L 207 244.5 L 210 248.5 L 223 279.5 L 253 339.5 L 255 346.5 L 261 358.5 L 265.5 364 L 304.5 364 Q 305.5 364 305 359.5 L 304.5 358 L 309 367 L 263.5 367 L 261 364.5 L 240 318.5 L 230.5 301 L 216.5 302 L 207 285.5 L 195 257 L 208.5 257 L 210 255.5 L 174 177.5 L 172 175.5 L 162 151.5 L 156 141.5 L 156 138.5 L 181.5 89 Z "></path><path fill="rgb(72,51,18)" stroke="rgb(72,51,18)" stroke-width="1" opacity="0.9921568627450981" d="M 481.5 89 L 483 89.5 L 418 219.5 L 406 244.5 L 406 247.5 L 420 275.5 L 428 296.5 L 425 294.5 L 416 272.5 L 406 253.5 L 404 248.5 L 404 242.5 L 409 235.5 L 424 202.5 L 439 174.5 L 444 161.5 L 481.5 89 Z "></path><path fill="rgb(72,51,18)" stroke="rgb(72,51,18)" stroke-width="1" opacity="0.9921568627450981" d="M 145.5 160 L 145 161.5 L 144 167.5 L 138 180.5 L 126 202.5 L 124 209.5 L 108 239.5 L 107 244.5 L 100 258.5 L 100.5 260 L 99 259.5 L 88 282.5 L 91.5 287 L 88.5 285 L 87 284.5 L 87.5 289 L 88.5 287 L 89 288.5 L 87 291.5 Q 89.8 292.6 89 296 Q 86 294.8 87 298.5 L 85 297.5 L 84.5 296 L 84 299.5 Q 86.5 301 83 302.5 L 83.5 304 L 85.5 303 L 85 304.5 Q 84.3 306.8 86.5 306 L 88 305.5 Q 85.3 306.3 86 310.5 L 89.5 316 L 94.5 317 L 96 316.5 L 95 318.5 L 97.5 323 L 100 324.5 L 102.5 328 L 104.5 327 L 106 327.5 L 106 325 Q 103 326 104 323 L 110 322.5 L 108 319 L 111 318.5 L 108.5 317 Q 106.7 320.8 105 317.5 Q 108 316.3 107 312 Q 103.7 313.1 105 309 Q 108 307.8 107 311.5 L 109 310.5 Q 108.3 308.3 110.5 309 L 112 312 Q 114.7 313.1 114 310.5 L 115.5 311 L 118 309.5 L 120 305.5 L 119.5 304 L 121 304.5 L 120 301.5 L 121 301.5 L 121.5 303 L 124 297.5 L 122 297.5 Q 123.3 294.8 124.5 297 Q 127.1 297.8 126 294.5 L 139 270.5 L 141 263.5 L 150.5 248 L 150 249.5 L 140 272.5 L 96 358.5 L 95 363.5 L 92.5 366 L 90.5 367 L 42.5 367 L 44 364.5 L 74 305.5 L 81 288.5 Q 99.7 255.7 115 219.5 L 131 189.5 L 132 184.5 L 143 162.5 L 145.5 160 Z M 86 289 L 84 291 L 85 293 Q 83 297 87 296 L 88 294 L 86 294 L 87 291 Q 88 288 86 289 Z M 84 293 L 83 296 L 84 296 L 84 293 Z M 83 296 L 81 299 L 81 300 L 83 299 L 83 296 Z M 84 310 Q 81 311 82 315 L 84 314 L 87 315 Q 89 311 84 312 L 84 310 Z M 115 312 L 116 315 L 117 313 L 115 312 Z M 109 313 L 109 315 Q 111 318 112 315 L 109 313 Z M 78 319 L 78 320 L 80 320 L 78 319 Z "></path><path fill="rgb(72,51,18)" stroke="rgb(72,51,18)" stroke-width="1" opacity="0.9921568627450981" d="M 347.5 178 Q 349.8 177.3 349 179.5 L 350 182.5 L 325 220.5 L 325 225.5 L 353 284.5 L 351.5 284 Q 348.2 282.9 349 285.5 L 343 298 Q 340 299.3 341 295.5 L 335 285.5 L 313 237.5 L 323 223.5 Q 322 216.5 325 213.5 L 347.5 178 Z "></path><path fill="rgb(72,51,18)" stroke="rgb(72,51,18)" stroke-width="1" opacity="0.9921568627450981" d="M 161.5 200 Q 163.8 199.3 163 201.5 L 161.5 200 Z "></path><path fill="rgb(72,51,18)" stroke="rgb(72,51,18)" stroke-width="1" opacity="0.9921568627450981" d="M 159.5 230 L 160 231.5 L 158 232.5 L 159.5 230 Z "></path><path fill="rgb(72,51,18)" stroke="rgb(72,51,18)" stroke-width="1" opacity="0.9921568627450981" d="M 157.5 234 L 157 235.5 Q 158.1 238.8 155.5 238 L 156 236.5 L 157.5 234 Z "></path><path fill="rgb(72,51,18)" stroke="rgb(72,51,18)" stroke-width="1" opacity="0.9921568627450981" d="M 309.5 242 Q 311.8 241.3 311 243.5 L 294 277.5 L 294 282.5 L 322 341.5 L 319 343 Q 307 311.4 291 282.5 L 291 278.5 L 301 259.5 L 306 246.5 L 309.5 242 Z "></path><path fill="rgb(72,51,18)" stroke="rgb(72,51,18)" stroke-width="1" opacity="0.9921568627450981" d="M 152.5 244 L 153 245.5 L 151 246.5 L 152.5 244 Z "></path><path fill="rgb(72,51,18)" stroke="rgb(72,51,18)" stroke-width="1" opacity="0.9921568627450981" d="M 172 257 L 187 257.5 L 175.5 258 L 173 260.5 L 165 275.5 L 164 281 Q 161 279.8 162 283.5 L 149 305.5 L 148 310 L 155.5 310 L 156.5 309 L 157.5 310 L 207.5 310 L 209.5 310 Q 212.8 311.1 212 308.5 L 213 306 L 211 305.5 L 212.5 305 L 216 311.5 L 145 312 L 145 308.5 L 172 257 Z "></path><path fill="rgb(72,51,18)" stroke="rgb(72,51,18)" stroke-width="1" opacity="0.9921568627450981" d="M 188.5 257 Q 192.3 255.8 191 259.5 L 190 259.5 Q 190.8 257.3 188.5 258 L 188.5 257 Z "></path><path fill="rgb(72,51,18)" stroke="rgb(72,51,18)" stroke-width="1" opacity="0.9921568627450981" d="M 191.5 261 L 192.5 263 L 191.5 261 Z "></path><path fill="rgb(72,51,18)" stroke="rgb(72,51,18)" stroke-width="1" opacity="0.9921568627450981" d="M 194.5 267 L 198 274.5 L 197 274.5 L 194.5 267 Z "></path><path fill="rgb(72,51,18)" stroke="rgb(72,51,18)" stroke-width="1" opacity="0.9921568627450981" d="M 200.5 278 L 201 280.5 L 200 280.5 L 200.5 278 Z "></path><path fill="rgb(72,51,18)" stroke="rgb(72,51,18)" stroke-width="1" opacity="0.9921568627450981" d="M 202.5 284 L 204 286.5 L 202 285.5 L 202.5 284 Z "></path><path fill="rgb(72,51,18)" stroke="rgb(72,51,18)" stroke-width="1" opacity="0.9921568627450981" d="M 353.5 286 L 376 333.5 L 386 351.5 L 391 362.5 L 391 366.5 L 390 366.5 L 353 289.5 L 353 287.5 L 353.5 286 Z "></path><path fill="rgb(72,51,18)" stroke="rgb(72,51,18)" stroke-width="1" opacity="0.9921568627450981" d="M 206.5 293 L 208 296.5 L 207 296.5 L 206.5 293 Z "></path><path fill="rgb(72,51,18)" stroke="rgb(72,51,18)" stroke-width="1" opacity="0.9921568627450981" d="M 301.5 349 L 302 351.5 L 301 351.5 L 301.5 349 Z "></path><path fill="rgb(135,117,76)" stroke="rgb(135,117,76)" stroke-width="1" opacity="0.9058823529411765" d="M 496.5 84 L 502 84.5 L 496.5 85 L 496.5 84 Z "></path><path fill="rgb(135,117,76)" stroke="rgb(135,117,76)" stroke-width="1" opacity="0.9058823529411765" d="M 516.5 85 L 520 85.5 L 516.5 86 L 516.5 85 Z "></path><path fill="rgb(135,117,76)" stroke="rgb(135,117,76)" stroke-width="1" opacity="0.9058823529411765" d="M 526.5 85 L 529 85.5 L 526.5 86 L 526.5 85 Z "></path><path fill="rgb(135,117,76)" stroke="rgb(135,117,76)" stroke-width="1" opacity="0.9058823529411765" d="M 181.5 88 Q 183.8 87.3 183 89.5 L 179 90.5 L 181.5 88 Z "></path><path fill="rgb(135,117,76)" stroke="rgb(135,117,76)" stroke-width="1" opacity="0.9058823529411765" d="M 480.5 89 L 480 90.5 L 478.5 93 L 479 91.5 L 480.5 89 Z "></path><path fill="rgb(135,117,76)" stroke="rgb(135,117,76)" stroke-width="1" opacity="0.9058823529411765" d="M 178.5 92 L 179 93.5 L 177 94.5 L 178.5 92 Z "></path><path fill="rgb(135,117,76)" stroke="rgb(135,117,76)" stroke-width="1" opacity="0.9058823529411765" d="M 182 92 Q 185 90.8 184 94.5 L 187 101 L 181 99 L 177.5 107 L 175 106.5 L 182 92 Z "></path><path fill="rgb(135,117,76)" stroke="rgb(135,117,76)" stroke-width="1" opacity="0.9058823529411765" d="M 477.5 94 L 478 95.5 L 475.5 99 L 476 97.5 L 477.5 94 Z "></path><path fill="rgb(135,117,76)" stroke="rgb(135,117,76)" stroke-width="1" opacity="0.9058823529411765" d="M 480.5 95 L 480 96.5 L 479.5 98 L 479 96.5 L 480.5 95 Z "></path><path fill="rgb(135,117,76)" stroke="rgb(135,117,76)" stroke-width="1" opacity="0.9058823529411765" d="M 175.5 98 L 176 99.5 L 173.5 103 L 174 101.5 L 175.5 98 Z "></path><path fill="rgb(135,117,76)" stroke="rgb(135,117,76)" stroke-width="1" opacity="0.9058823529411765" d="M 476.5 103 L 475.5 105 L 476.5 103 Z "></path><path fill="rgb(135,117,76)" stroke="rgb(135,117,76)" stroke-width="1" opacity="0.9058823529411765" d="M 172.5 105 L 172 106.5 L 170.5 110 L 170 108.5 L 172.5 105 Z "></path><path fill="rgb(135,117,76)" stroke="rgb(135,117,76)" stroke-width="1" opacity="0.9058823529411765" d="M 174 108 Q 178.1 106.7 177 110 Q 174.3 108.9 175 111.5 L 168 129 Q 165 127.8 166 131.5 L 163 135.5 L 164 138.5 Q 162.9 146.6 167 149.5 L 166.5 151 L 168 151.5 Q 165.5 153 169 154.5 L 181 179.5 L 181 183 L 183 183.5 L 183 185.5 Q 182.3 188.1 185 187 L 185 190.5 L 186 195 Q 189 193.8 188 197.5 Q 191 199.8 190 205 Q 192.7 203.9 192 206.5 Q 192.8 212.7 197 215.5 L 197 219.5 L 196 219.5 L 192 208 Q 189 209.3 190 205.5 L 179 183.5 L 178 178.5 L 175 174.5 L 175 171.5 L 169 161.5 L 168 156.5 L 159 140.5 L 159 137.5 L 162 134.5 L 168 120 L 170 119.5 L 170 117.5 L 174 108 Z "></path><path fill="rgb(135,117,76)" stroke="rgb(135,117,76)" stroke-width="1" opacity="0.9058823529411765" d="M 473.5 109 L 472.5 111 L 473.5 109 Z "></path><path fill="rgb(135,117,76)" stroke="rgb(135,117,76)" stroke-width="1" opacity="0.9058823529411765" d="M 169.5 111 L 169 112.5 L 167.5 116 L 167 114.5 L 169.5 111 Z "></path><path fill="rgb(135,117,76)" stroke="rgb(135,117,76)" stroke-width="1" opacity="0.9058823529411765" d="M 467.5 114 L 467 115.5 L 466.5 117 L 466 115.5 L 467.5 114 Z "></path><path fill="rgb(135,117,76)" stroke="rgb(135,117,76)" stroke-width="1" opacity="0.9058823529411765" d="M 164.5 121 L 164 122.5 L 163.5 124 L 163 122.5 L 164.5 121 Z "></path><path fill="rgb(135,117,76)" stroke="rgb(135,117,76)" stroke-width="1" opacity="0.9058823529411765" d="M 463.5 122 L 463 123.5 L 461.5 127 L 460.5 125 Q 462.8 125.8 462 123.5 L 463.5 122 Z "></path><path fill="rgb(135,117,76)" stroke="rgb(135,117,76)" stroke-width="1" opacity="0.9058823529411765" d="M 460.5 128 L 460 129.5 L 459.5 131 L 459 129.5 L 460.5 128 Z "></path><path fill="rgb(135,117,76)" stroke="rgb(135,117,76)" stroke-width="1" opacity="0.9058823529411765" d="M 158.5 133 L 158 134.5 L 156.5 138 L 156 136.5 L 158.5 133 Z "></path><path fill="rgb(135,117,76)" stroke="rgb(135,117,76)" stroke-width="1" opacity="0.9058823529411765" d="M 205.5 141 L 206.5 143 L 205.5 141 Z "></path><path fill="rgb(135,117,76)" stroke="rgb(135,117,76)" stroke-width="1" opacity="0.9058823529411765" d="M 157.5 144 L 158.5 146 L 157.5 144 Z "></path><path fill="rgb(135,117,76)" stroke="rgb(135,117,76)" stroke-width="1" opacity="0.9058823529411765" d="M 455.5 144 L 456 145.5 L 454 146.5 L 455.5 144 Z "></path><path fill="rgb(135,117,76)" stroke="rgb(135,117,76)" stroke-width="1" opacity="0.9058823529411765" d="M 160.5 150 L 162 152.5 L 161 152.5 L 160.5 150 Z "></path><path fill="rgb(135,117,76)" stroke="rgb(135,117,76)" stroke-width="1" opacity="0.9058823529411765" d="M 214.5 150 L 215.5 152 L 214.5 150 Z "></path><path fill="rgb(135,117,76)" stroke="rgb(135,117,76)" stroke-width="1" opacity="0.9058823529411765" d="M 449.5 150 L 450 151.5 L 447.5 155 L 448 153.5 L 449.5 150 Z "></path><path fill="rgb(135,117,76)" stroke="rgb(135,117,76)" stroke-width="1" opacity="0.9058823529411765" d="M 163.5 156 L 166 160.5 L 164 159.5 L 163.5 156 Z "></path><path fill="rgb(135,117,76)" stroke="rgb(135,117,76)" stroke-width="1" opacity="0.9058823529411765" d="M 143.5 158 L 146 158.5 L 144 161.5 L 143 161.5 L 144 159.5 L 143.5 158 Z "></path><path fill="rgb(135,117,76)" stroke="rgb(135,117,76)" stroke-width="1" opacity="0.9058823529411765" d="M 442.5 164 L 443 165.5 L 441.5 168 L 441 166.5 L 442.5 164 Z "></path><path fill="rgb(135,117,76)" stroke="rgb(135,117,76)" stroke-width="1" opacity="0.9058823529411765" d="M 141.5 165 L 142 166.5 L 139.5 170 L 140 168.5 L 141.5 165 Z "></path><path fill="rgb(135,117,76)" stroke="rgb(135,117,76)" stroke-width="1" opacity="0.9058823529411765" d="M 145.5 165 L 149 170.5 L 148 170.5 L 145.5 167 L 139.5 179 L 139 177.5 Q 142.5 175.3 142 170 Q 145 171.3 144 167.5 L 145.5 165 Z "></path><path fill="rgb(135,117,76)" stroke="rgb(135,117,76)" stroke-width="1" opacity="0.9058823529411765" d="M 167.5 165 L 169 167.5 L 168 167.5 L 167.5 165 Z "></path><path fill="rgb(135,117,76)" stroke="rgb(135,117,76)" stroke-width="1" opacity="0.9058823529411765" d="M 138.5 171 L 139 172.5 L 136.5 176 L 137 174.5 L 138.5 171 Z "></path><path fill="rgb(135,117,76)" stroke="rgb(135,117,76)" stroke-width="1" opacity="0.9058823529411765" d="M 219.5 171 L 220.5 173 L 219.5 171 Z "></path><path fill="rgb(135,117,76)" stroke="rgb(135,117,76)" stroke-width="1" opacity="0.9058823529411765" d="M 439.5 171 L 439 172.5 L 438.5 174 L 438 172.5 L 439.5 171 Z "></path><path fill="rgb(135,117,76)" stroke="rgb(135,117,76)" stroke-width="1" opacity="0.9058823529411765" d="M 151.5 176 L 153 178.5 L 151 177.5 L 151.5 176 Z "></path><path fill="rgb(135,117,76)" stroke="rgb(135,117,76)" stroke-width="1" opacity="0.9058823529411765" d="M 222.5 177 L 223.5 179 L 222.5 177 Z "></path><path fill="rgb(135,117,76)" stroke="rgb(135,117,76)" stroke-width="1" opacity="0.9058823529411765" d="M 347.5 177 L 350 178.5 L 348.5 178 L 346 179.5 L 345.5 181 L 345 179.5 L 347.5 177 Z "></path><path fill="rgb(135,117,76)" stroke="rgb(135,117,76)" stroke-width="1" opacity="0.9058823529411765" d="M 134.5 179 L 135 180.5 L 133 181.5 L 134.5 179 Z "></path><path fill="rgb(135,117,76)" stroke="rgb(135,117,76)" stroke-width="1" opacity="0.9058823529411765" d="M 435.5 179 L 436 180.5 L 434 181.5 L 435.5 179 Z "></path><path fill="rgb(135,117,76)" stroke="rgb(135,117,76)" stroke-width="1" opacity="0.9058823529411765" d="M 438.5 179 L 439 180.5 L 437 181.5 L 438.5 179 Z "></path><path fill="rgb(135,117,76)" stroke="rgb(135,117,76)" stroke-width="1" opacity="0.9058823529411765" d="M 350.5 180 L 353 188.5 L 351.5 188 L 350 187.5 L 350.5 180 Z "></path><path fill="rgb(135,117,76)" stroke="rgb(135,117,76)" stroke-width="1" opacity="0.9058823529411765" d="M 344.5 182 L 344 183.5 L 341.5 188 L 342 186.5 L 344.5 182 Z "></path><path fill="rgb(135,117,76)" stroke="rgb(135,117,76)" stroke-width="1" opacity="0.9058823529411765" d="M 354.5 182 L 355.5 184 L 354.5 182 Z "></path><path fill="rgb(135,117,76)" stroke="rgb(135,117,76)" stroke-width="1" opacity="0.9058823529411765" d="M 154.5 183 L 155.5 185 L 154.5 183 Z "></path><path fill="rgb(135,117,76)" stroke="rgb(135,117,76)" stroke-width="1" opacity="0.9058823529411765" d="M 347.5 187 L 345.5 190 L 347.5 187 Z "></path><path fill="rgb(135,117,76)" stroke="rgb(135,117,76)" stroke-width="1" opacity="0.9058823529411765" d="M 338.5 192 L 338 193.5 L 336.5 196 L 337 194.5 L 338.5 192 Z "></path><path fill="rgb(135,117,76)" stroke="rgb(135,117,76)" stroke-width="1" opacity="0.9058823529411765" d="M 180.5 193 L 182 195.5 L 180 194.5 L 180.5 193 Z "></path><path fill="rgb(135,117,76)" stroke="rgb(135,117,76)" stroke-width="1" opacity="0.9058823529411765" d="M 343.5 193 L 342.5 195 L 343.5 193 Z "></path><path fill="rgb(135,117,76)" stroke="rgb(135,117,76)" stroke-width="1" opacity="0.9058823529411765" d="M 428.5 193 L 429 194.5 L 427 195.5 L 428.5 193 Z "></path><path fill="rgb(135,117,76)" stroke="rgb(135,117,76)" stroke-width="1" opacity="0.9058823529411765" d="M 160.5 196 L 163 199.5 L 161 198.5 L 160.5 196 Z "></path><path fill="rgb(135,117,76)" stroke="rgb(135,117,76)" stroke-width="1" opacity="0.9058823529411765" d="M 426.5 197 L 427 198.5 L 424.5 202 L 425 200.5 L 426.5 197 Z "></path><path fill="rgb(135,117,76)" stroke="rgb(135,117,76)" stroke-width="1" opacity="0.9058823529411765" d="M 340.5 198 L 339.5 200 L 340.5 198 Z "></path><path fill="rgb(135,117,76)" stroke="rgb(135,117,76)" stroke-width="1" opacity="0.9058823529411765" d="M 334.5 199 L 333 201.5 L 329.5 207 L 330 205.5 L 334.5 199 Z "></path><path fill="rgb(135,117,76)" stroke="rgb(135,117,76)" stroke-width="1" opacity="0.9058823529411765" d="M 184.5 201 L 186 203.5 L 184 202.5 L 184.5 201 Z "></path><path fill="rgb(135,117,76)" stroke="rgb(135,117,76)" stroke-width="1" opacity="0.9058823529411765" d="M 337.5 203 L 337 204.5 L 334.5 208 L 336 205.5 L 337.5 203 Z "></path><path fill="rgb(135,117,76)" stroke="rgb(135,117,76)" stroke-width="1" opacity="0.9058823529411765" d="M 164.5 204 L 165.5 206 L 164.5 204 Z "></path><path fill="rgb(135,117,76)" stroke="rgb(135,117,76)" stroke-width="1" opacity="0.9058823529411765" d="M 422.5 206 L 421.5 208 L 422.5 206 Z "></path><path fill="rgb(135,117,76)" stroke="rgb(135,117,76)" stroke-width="1" opacity="0.9058823529411765" d="M 120.5 208 L 121 209.5 L 119 210.5 L 120.5 208 Z "></path><path fill="rgb(135,117,76)" stroke="rgb(135,117,76)" stroke-width="1" opacity="0.9058823529411765" d="M 187.5 208 L 189 210.5 L 188 210.5 L 187.5 208 Z "></path><path fill="rgb(135,117,76)" stroke="rgb(135,117,76)" stroke-width="1" opacity="0.9058823529411765" d="M 328.5 208 L 328 209.5 L 325.5 213 L 324.5 211 Q 325.8 213.3 327 210.5 L 328.5 208 Z "></path><path fill="rgb(135,117,76)" stroke="rgb(135,117,76)" stroke-width="1" opacity="0.9058823529411765" d="M 333.5 209 L 332.5 211 L 333.5 209 Z "></path><path fill="rgb(135,117,76)" stroke="rgb(135,117,76)" stroke-width="1" opacity="0.9058823529411765" d="M 419.5 212 L 419 213.5 L 418.5 215 L 418 213.5 L 419.5 212 Z "></path><path fill="rgb(135,117,76)" stroke="rgb(135,117,76)" stroke-width="1" opacity="0.9058823529411765" d="M 168.5 213 L 169 215.5 L 167.5 218 L 167 216.5 L 168.5 213 Z "></path><path fill="rgb(135,117,76)" stroke="rgb(135,117,76)" stroke-width="1" opacity="0.9058823529411765" d="M 190.5 214 L 192 217.5 L 191 217.5 L 190.5 214 Z "></path><path fill="rgb(135,117,76)" stroke="rgb(135,117,76)" stroke-width="1" opacity="0.9058823529411765" d="M 239.5 214 L 240.5 216 L 239.5 214 Z "></path><path fill="rgb(135,117,76)" stroke="rgb(135,117,76)" stroke-width="1" opacity="0.9058823529411765" d="M 324.5 214 L 324 215.5 L 322.5 224 L 322 217.5 L 324.5 214 Z "></path><path fill="rgb(135,117,76)" stroke="rgb(135,117,76)" stroke-width="1" opacity="0.9058823529411765" d="M 330.5 214 L 330 215.5 L 326.5 220 L 329 216.5 L 330.5 214 Z "></path><path fill="rgb(135,117,76)" stroke="rgb(135,117,76)" stroke-width="1" opacity="0.9058823529411765" d="M 421.5 214 L 422 215.5 L 420 216.5 L 421.5 214 Z "></path><path fill="rgb(135,117,76)" stroke="rgb(135,117,76)" stroke-width="1" opacity="0.9058823529411765" d="M 114.5 220 L 115 221.5 L 113.5 224 L 113 222.5 L 114.5 220 Z "></path><path fill="rgb(135,117,76)" stroke="rgb(135,117,76)" stroke-width="1" opacity="0.9058823529411765" d="M 415.5 220 L 414.5 222 L 415.5 220 Z "></path><path fill="rgb(135,117,76)" stroke="rgb(135,117,76)" stroke-width="1" opacity="0.9058823529411765" d="M 418.5 220 L 419 221.5 L 417 222.5 L 418.5 220 Z "></path><path fill="rgb(135,117,76)" stroke="rgb(135,117,76)" stroke-width="1" opacity="0.9058823529411765" d="M 197.5 221 Q 199.8 220.3 199 222.5 L 210 245.5 L 209 245.5 L 208 242 Q 204.7 243.3 206 238.5 L 205 235 Q 202 236.3 203 232.5 L 197.5 221 Z "></path><path fill="rgb(135,117,76)" stroke="rgb(135,117,76)" stroke-width="1" opacity="0.9058823529411765" d="M 194.5 223 L 196 225.5 L 194 224.5 L 194.5 223 Z "></path><path fill="rgb(135,117,76)" stroke="rgb(135,117,76)" stroke-width="1" opacity="0.9058823529411765" d="M 325 224 Q 328.3 222.7 327 227.5 L 327.5 229 L 325 224 Z "></path><path fill="rgb(135,117,76)" stroke="rgb(135,117,76)" stroke-width="1" opacity="0.9058823529411765" d="M 320.5 226 L 318.5 229 L 320.5 226 Z "></path><path fill="rgb(135,117,76)" stroke="rgb(135,117,76)" stroke-width="1" opacity="0.9058823529411765" d="M 162.5 227 L 162 228.5 L 161.5 230 L 161 228.5 L 162.5 227 Z "></path><path fill="rgb(135,117,76)" stroke="rgb(135,117,76)" stroke-width="1" opacity="0.9058823529411765" d="M 245.5 227 L 247 229.5 L 246 229.5 L 245.5 227 Z "></path><path fill="rgb(135,117,76)" stroke="rgb(135,117,76)" stroke-width="1" opacity="0.9058823529411765" d="M 415.5 227 L 415 228.5 L 414.5 230 L 414 228.5 L 415.5 227 Z "></path><path fill="rgb(135,117,76)" stroke="rgb(135,117,76)" stroke-width="1" opacity="0.9058823529411765" d="M 197.5 230 L 198.5 232 L 197.5 230 Z "></path><path fill="rgb(135,117,76)" stroke="rgb(135,117,76)" stroke-width="1" opacity="0.9058823529411765" d="M 317.5 230 L 315 233.5 L 313.5 237 L 313 235.5 L 317.5 230 Z "></path><path fill="rgb(135,117,76)" stroke="rgb(135,117,76)" stroke-width="1" opacity="0.9058823529411765" d="M 409.5 232 L 409 233.5 L 407.5 237 L 407 235.5 L 409.5 232 Z "></path><path fill="rgb(135,117,76)" stroke="rgb(135,117,76)" stroke-width="1" opacity="0.9058823529411765" d="M 159.5 233 L 159 234.5 L 158.5 236 L 158 234.5 L 159.5 233 Z "></path><path fill="rgb(135,117,76)" stroke="rgb(135,117,76)" stroke-width="1" opacity="0.9058823529411765" d="M 253.5 234 L 254.5 236 L 253.5 234 Z "></path><path fill="rgb(135,117,76)" stroke="rgb(135,117,76)" stroke-width="1" opacity="0.9058823529411765" d="M 411.5 234 L 412 235.5 L 410 236.5 L 411.5 234 Z "></path><path fill="rgb(135,117,76)" stroke="rgb(135,117,76)" stroke-width="1" opacity="0.9058823529411765" d="M 200.5 236 L 202 238.5 L 201 238.5 L 200.5 236 Z "></path><path fill="rgb(135,117,76)" stroke="rgb(135,117,76)" stroke-width="1" opacity="0.9058823529411765" d="M 406.5 238 L 406 239.5 L 404.5 242 L 405 240.5 L 406.5 238 Z "></path><path fill="rgb(135,117,76)" stroke="rgb(135,117,76)" stroke-width="1" opacity="0.9058823529411765" d="M 313.5 239 L 315 241.5 L 313 240.5 L 313.5 239 Z "></path><path fill="rgb(135,117,76)" stroke="rgb(135,117,76)" stroke-width="1" opacity="0.9058823529411765" d="M 332.5 240 L 334 242.5 L 333 242.5 L 332.5 240 Z "></path><path fill="rgb(135,117,76)" stroke="rgb(135,117,76)" stroke-width="1" opacity="0.9058823529411765" d="M 104.5 241 L 104 242.5 L 102.5 246 L 102 244.5 L 104.5 241 Z "></path><path fill="rgb(135,117,76)" stroke="rgb(135,117,76)" stroke-width="1" opacity="0.9058823529411765" d="M 309.5 241 L 311 241.5 L 308 243.5 L 306.5 246 L 307 244.5 L 309.5 241 Z "></path><path fill="rgb(135,117,76)" stroke="rgb(135,117,76)" stroke-width="1" opacity="0.9058823529411765" d="M 408.5 241 L 408 242.5 L 407.5 244 L 407 242.5 L 408.5 241 Z "></path><path fill="rgb(135,117,76)" stroke="rgb(135,117,76)" stroke-width="1" opacity="0.9058823529411765" d="M 311.5 244 Q 314.8 246 314 251 L 310 252.5 L 310 255 Q 307.3 253.9 308 256.5 L 298 275.5 L 297 280.5 L 299 288 L 301 288.5 L 300.5 290 L 302 290.5 L 301 292.5 L 304 295.5 L 307.5 305 L 309 304.5 L 308 306.5 L 316 321.5 L 315.5 323 Q 318.1 322.2 317 325.5 L 319 330 L 321 330.5 L 320.5 332 Q 322.8 332.8 322 330.5 L 324.5 332 L 327 329.5 L 327.5 328 L 328 329.5 L 321.5 340 L 304 300.5 L 298 290.5 L 294 281.5 L 294 278.5 L 308 248.5 L 311.5 244 Z M 324 332 L 323 335 L 324 335 L 324 332 Z "></path><path fill="rgb(135,117,76)" stroke="rgb(135,117,76)" stroke-width="1" opacity="0.9058823529411765" d="M 403.5 244 L 404 247.5 L 403 247.5 L 403.5 244 Z "></path><path fill="rgb(135,117,76)" stroke="rgb(135,117,76)" stroke-width="1" opacity="0.9058823529411765" d="M 204.5 245 L 207 249.5 L 206 249.5 L 204.5 245 Z "></path><path fill="rgb(135,117,76)" stroke="rgb(135,117,76)" stroke-width="1" opacity="0.9058823529411765" d="M 335.5 246 L 338 249.5 L 336 248.5 L 335.5 246 Z "></path><path fill="rgb(135,117,76)" stroke="rgb(135,117,76)" stroke-width="1" opacity="0.9058823529411765" d="M 152.5 247 L 152 248.5 L 151.5 250 L 151 248.5 L 152.5 247 Z "></path><path fill="rgb(135,117,76)" stroke="rgb(135,117,76)" stroke-width="1" opacity="0.9058823529411765" d="M 304.5 249 L 305 250.5 L 302.5 255 L 302 253.5 L 304.5 249 Z "></path><path fill="rgb(135,117,76)" stroke="rgb(135,117,76)" stroke-width="1" opacity="0.9058823529411765" d="M 212.5 250 L 213 252.5 L 212 252.5 L 212.5 250 Z "></path><path fill="rgb(135,117,76)" stroke="rgb(135,117,76)" stroke-width="1" opacity="0.9058823529411765" d="M 207.5 251 L 210 255.5 L 208.5 257 L 196.5 257 L 196.5 256 L 208.5 256 L 209 254.5 Q 206 253.5 207.5 251 Z "></path><path fill="rgb(135,117,76)" stroke="rgb(135,117,76)" stroke-width="1" opacity="0.9058823529411765" d="M 213.5 254 L 235 299.5 L 233 300 L 232 294 Q 228.3 295.4 230 289.5 L 223 278.5 L 222 273.5 L 213 255.5 L 213.5 254 Z "></path><path fill="rgb(135,117,76)" stroke="rgb(135,117,76)" stroke-width="1" opacity="0.9058823529411765" d="M 339.5 254 L 341 256.5 L 339 255.5 L 339.5 254 Z "></path><path fill="rgb(135,117,76)" stroke="rgb(135,117,76)" stroke-width="1" opacity="0.9058823529411765" d="M 410.5 255 L 412 257.5 L 411 257.5 L 410.5 255 Z "></path><path fill="rgb(135,117,76)" stroke="rgb(135,117,76)" stroke-width="1" opacity="0.9058823529411765" d="M 172.5 256 L 190.5 256 L 192 257.5 L 193 259.5 L 191 258.5 L 190.5 257 L 172.5 257 L 171 257.5 L 172.5 256 Z "></path><path fill="rgb(135,117,76)" stroke="rgb(135,117,76)" stroke-width="1" opacity="0.9058823529411765" d="M 259.5 256 L 261 258.5 L 259 257.5 L 259.5 256 Z "></path><path fill="rgb(135,117,76)" stroke="rgb(135,117,76)" stroke-width="1" opacity="0.9058823529411765" d="M 194.5 258 L 195.5 260 L 194.5 258 Z "></path><path fill="rgb(135,117,76)" stroke="rgb(135,117,76)" stroke-width="1" opacity="0.9058823529411765" d="M 300.5 258 L 301 259.5 L 298.5 263 L 299 261.5 L 300.5 258 Z "></path><path fill="rgb(135,117,76)" stroke="rgb(135,117,76)" stroke-width="1" opacity="0.9058823529411765" d="M 408.5 258 L 410 260.5 L 408 259.5 L 408.5 258 Z "></path><path fill="rgb(135,117,76)" stroke="rgb(135,117,76)" stroke-width="1" opacity="0.9058823529411765" d="M 144.5 263 L 144 264.5 L 143.5 266 L 143 264.5 L 144.5 263 Z "></path><path fill="rgb(135,117,76)" stroke="rgb(135,117,76)" stroke-width="1" opacity="0.9058823529411765" d="M 262.5 263 L 264 265.5 L 263 265.5 L 262.5 263 Z "></path><path fill="rgb(135,117,76)" stroke="rgb(135,117,76)" stroke-width="1" opacity="0.9058823529411765" d="M 414.5 263 L 416 265.5 L 414 264.5 L 414.5 263 Z "></path><path fill="rgb(135,117,76)" stroke="rgb(135,117,76)" stroke-width="1" opacity="0.9058823529411765" d="M 411.5 265 L 412.5 267 L 411.5 265 Z "></path><path fill="rgb(135,117,76)" stroke="rgb(135,117,76)" stroke-width="1" opacity="0.9058823529411765" d="M 90.5 269 L 91 270.5 L 89 271.5 L 90.5 269 Z "></path><path fill="rgb(135,117,76)" stroke="rgb(135,117,76)" stroke-width="1" opacity="0.9058823529411765" d="M 141.5 269 L 142 270.5 L 139.5 274 L 140 272.5 L 141.5 269 Z "></path><path fill="rgb(135,117,76)" stroke="rgb(135,117,76)" stroke-width="1" opacity="0.9058823529411765" d="M 294.5 270 L 295 271.5 L 292.5 276 L 292 274.5 L 294.5 270 Z "></path><path fill="rgb(135,117,76)" stroke="rgb(135,117,76)" stroke-width="1" opacity="0.9058823529411765" d="M 417.5 270 L 419 272.5 L 418 272.5 L 417.5 270 Z "></path><path fill="rgb(135,117,76)" stroke="rgb(135,117,76)" stroke-width="1" opacity="0.9058823529411765" d="M 324.5 271 L 325.5 273 L 324.5 271 Z "></path><path fill="rgb(135,117,76)" stroke="rgb(135,117,76)" stroke-width="1" opacity="0.9058823529411765" d="M 414.5 271 L 415.5 273 L 414.5 271 Z "></path><path fill="rgb(135,117,76)" stroke="rgb(135,117,76)" stroke-width="1" opacity="0.9058823529411765" d="M 138.5 275 L 139 276.5 L 136.5 281 L 136 279.5 L 138.5 275 Z "></path><path fill="rgb(135,117,76)" stroke="rgb(135,117,76)" stroke-width="1" opacity="0.9058823529411765" d="M 161.5 276 L 162 277.5 L 159.5 281 L 160 279.5 L 161.5 276 Z "></path><path fill="rgb(135,117,76)" stroke="rgb(135,117,76)" stroke-width="1" opacity="0.9058823529411765" d="M 349.5 276 L 350.5 278 L 349.5 276 Z "></path><path fill="rgb(135,117,76)" stroke="rgb(135,117,76)" stroke-width="1" opacity="0.9058823529411765" d="M 421.5 278 L 423 280.5 L 421 279.5 L 421.5 278 Z "></path><path fill="rgb(135,117,76)" stroke="rgb(135,117,76)" stroke-width="1" opacity="0.9058823529411765" d="M 201.5 279 L 203 281.5 L 201 280.5 L 201.5 279 Z "></path><path fill="rgb(135,117,76)" stroke="rgb(135,117,76)" stroke-width="1" opacity="0.9058823529411765" d="M 204.5 279 L 206 281.5 L 204 280.5 L 204.5 279 Z "></path><path fill="rgb(135,117,76)" stroke="rgb(135,117,76)" stroke-width="1" opacity="0.9058823529411765" d="M 290.5 279 L 291 281.5 L 290 281.5 L 290.5 279 Z "></path><path fill="rgb(135,117,76)" stroke="rgb(135,117,76)" stroke-width="1" opacity="0.9058823529411765" d="M 135.5 282 L 135 283.5 L 133.5 286 L 134 284.5 L 135.5 282 Z "></path><path fill="rgb(135,117,76)" stroke="rgb(135,117,76)" stroke-width="1" opacity="0.9058823529411765" d="M 352.5 282 Q 355.1 281.2 354 284.5 L 356 284.5 L 354.5 287 L 352.5 282 Z "></path><path fill="rgb(135,117,76)" stroke="rgb(135,117,76)" stroke-width="1" opacity="0.9058823529411765" d="M 83.5 283 L 84 284.5 L 82.5 287 L 82 285.5 L 83.5 283 Z "></path><path fill="rgb(135,117,76)" stroke="rgb(135,117,76)" stroke-width="1" opacity="0.9058823529411765" d="M 157.5 284 L 157 285.5 L 156.5 287 L 156 285.5 L 157.5 284 Z "></path><path fill="rgb(135,117,76)" stroke="rgb(135,117,76)" stroke-width="1" opacity="0.9058823529411765" d="M 272.5 285 L 273.5 287 L 272.5 285 Z "></path><path fill="rgb(135,117,76)" stroke="rgb(135,117,76)" stroke-width="1" opacity="0.9058823529411765" d="M 424.5 285 L 426 287.5 L 424 286.5 L 424.5 285 Z "></path><path fill="rgb(135,117,76)" stroke="rgb(135,117,76)" stroke-width="1" opacity="0.9058823529411765" d="M 421.5 286 L 423 288.5 L 421 287.5 L 421.5 286 Z "></path><path fill="rgb(135,117,76)" stroke="rgb(135,117,76)" stroke-width="1" opacity="0.9058823529411765" d="M 356.5 287 L 358 289.5 L 358 291.5 L 358.5 293 L 359.5 291 L 360 295 Q 357.3 296.1 358 293.5 L 356 290.5 L 356.5 289 L 355 288.5 L 356.5 287 Z "></path><path fill="rgb(135,117,76)" stroke="rgb(135,117,76)" stroke-width="1" opacity="0.9058823529411765" d="M 155.5 288 L 155 289.5 L 152.5 294 L 153 292.5 L 155.5 288 Z "></path><path fill="rgb(135,117,76)" stroke="rgb(135,117,76)" stroke-width="1" opacity="0.9058823529411765" d="M 336.5 288 L 338 290.5 L 337 290.5 L 336.5 288 Z "></path><path fill="rgb(135,117,76)" stroke="rgb(135,117,76)" stroke-width="1" opacity="0.9058823529411765" d="M 80.5 289 L 81 290.5 L 78.5 294 L 79 292.5 L 80.5 289 Z "></path><path fill="rgb(135,117,76)" stroke="rgb(135,117,76)" stroke-width="1" opacity="0.9058823529411765" d="M 131.5 289 L 132 290.5 L 129.5 294 L 130 292.5 L 131.5 289 Z "></path><path fill="rgb(135,117,76)" stroke="rgb(135,117,76)" stroke-width="1" opacity="0.9058823529411765" d="M 333.5 289 Q 336.1 288.2 335 291.5 L 335.5 293 L 333.5 289 Z "></path><path fill="rgb(135,117,76)" stroke="rgb(135,117,76)" stroke-width="1" opacity="0.9058823529411765" d="M 347.5 289 L 346.5 291 L 347.5 289 Z "></path><path fill="rgb(135,117,76)" stroke="rgb(135,117,76)" stroke-width="1" opacity="0.9058823529411765" d="M 427.5 291 L 429 296.5 L 427.5 299 L 425 295.5 L 428 296.5 L 427.5 291 Z "></path><path fill="rgb(135,117,76)" stroke="rgb(135,117,76)" stroke-width="1" opacity="0.9058823529411765" d="M 346.5 292 L 345.5 294 L 346.5 292 Z "></path><path fill="rgb(135,117,76)" stroke="rgb(135,117,76)" stroke-width="1" opacity="0.9058823529411765" d="M 296.5 293 L 298 295.5 L 296 294.5 L 296.5 293 Z "></path><path fill="rgb(135,117,76)" stroke="rgb(135,117,76)" stroke-width="1" opacity="0.9058823529411765" d="M 354.5 293 L 356 296.5 L 355 296.5 L 354.5 293 Z "></path><path fill="rgb(135,117,76)" stroke="rgb(135,117,76)" stroke-width="1" opacity="0.9058823529411765" d="M 208.5 294 L 210 297.5 L 209 297.5 L 208.5 294 Z "></path><path fill="rgb(135,117,76)" stroke="rgb(135,117,76)" stroke-width="1" opacity="0.9058823529411765" d="M 151.5 295 L 152 296.5 L 149.5 300 L 150 298.5 L 151.5 295 Z "></path><path fill="rgb(135,117,76)" stroke="rgb(135,117,76)" stroke-width="1" opacity="0.9058823529411765" d="M 344.5 295 L 344 296.5 L 342.5 299 L 340 297.5 L 340.5 296 L 341 298 Q 343.7 299.1 343 296.5 L 344.5 295 Z "></path><path fill="rgb(135,117,76)" stroke="rgb(135,117,76)" stroke-width="1" opacity="0.9058823529411765" d="M 359.5 296 L 362 300.5 L 361 300.5 L 359.5 296 Z "></path><path fill="rgb(135,117,76)" stroke="rgb(135,117,76)" stroke-width="1" opacity="0.9058823529411765" d="M 127.5 297 L 128 298.5 L 126 299.5 L 127.5 297 Z "></path><path fill="rgb(135,117,76)" stroke="rgb(135,117,76)" stroke-width="1" opacity="0.9058823529411765" d="M 298.5 298 L 301 302.5 L 300 302.5 L 298.5 298 Z "></path><path fill="rgb(135,117,76)" stroke="rgb(135,117,76)" stroke-width="1" opacity="0.9058823529411765" d="M 337.5 298 Q 340.8 298.8 340 303.5 L 339 303.5 Q 339.4 298.8 337.5 298 Z "></path><path fill="rgb(135,117,76)" stroke="rgb(135,117,76)" stroke-width="1" opacity="0.9058823529411765" d="M 356.5 298 L 359 301.5 L 357 300.5 L 356.5 298 Z "></path><path fill="rgb(135,117,76)" stroke="rgb(135,117,76)" stroke-width="1" opacity="0.9058823529411765" d="M 224.5 301 L 228 301.5 L 224.5 302 L 224.5 301 Z "></path><path fill="rgb(135,117,76)" stroke="rgb(135,117,76)" stroke-width="1" opacity="0.9058823529411765" d="M 230.5 301 L 231.5 303 L 230.5 301 Z "></path><path fill="rgb(135,117,76)" stroke="rgb(135,117,76)" stroke-width="1" opacity="0.9058823529411765" d="M 363.5 301 L 366 307 L 363 305.5 L 362 302.5 L 363.5 301 Z "></path><path fill="rgb(135,117,76)" stroke="rgb(135,117,76)" stroke-width="1" opacity="0.9058823529411765" d="M 124.5 304 L 124 305.5 L 123.5 307 L 123 305.5 L 124.5 304 Z "></path><path fill="rgb(135,117,76)" stroke="rgb(135,117,76)" stroke-width="1" opacity="0.9058823529411765" d="M 232.5 304 L 234 306.5 L 232 305.5 L 232.5 304 Z "></path><path fill="rgb(135,117,76)" stroke="rgb(135,117,76)" stroke-width="1" opacity="0.9058823529411765" d="M 359.5 304 L 362 308.5 L 361 308.5 L 359.5 304 Z "></path><path fill="rgb(135,117,76)" stroke="rgb(135,117,76)" stroke-width="1" opacity="0.9058823529411765" d="M 338.5 305 L 339 306.5 L 336.5 311 L 337 309.5 Q 336.3 305.8 338.5 305 Z "></path><path fill="rgb(135,117,76)" stroke="rgb(135,117,76)" stroke-width="1" opacity="0.9058823529411765" d="M 282.5 307 L 285 310.5 L 283 309.5 L 282.5 307 Z "></path><path fill="rgb(135,117,76)" stroke="rgb(135,117,76)" stroke-width="1" opacity="0.9058823529411765" d="M 234.5 308 L 237 313.5 L 236 313.5 L 234.5 308 Z "></path><path fill="rgb(135,117,76)" stroke="rgb(135,117,76)" stroke-width="1" opacity="0.9058823529411765" d="M 303.5 308 L 305 310.5 L 303 309.5 L 303.5 308 Z "></path><path fill="rgb(135,117,76)" stroke="rgb(135,117,76)" stroke-width="1" opacity="0.9058823529411765" d="M 366.5 308 Q 374.5 318.3 378 332 Q 380.7 330.9 380 333.5 L 388 350.5 L 393.5 357 L 397 355.5 L 400.5 348 L 401 349.5 L 392.5 365 L 379 337.5 L 379.5 336 Q 377.3 336.8 378 334.5 L 372 323.5 L 372.5 322 Q 369.9 322.8 371 319.5 Q 367.8 317.5 368 313 Q 365 314.3 366 310.5 Q 363.8 309.3 366.5 308 Z "></path><path fill="rgb(135,117,76)" stroke="rgb(135,117,76)" stroke-width="1" opacity="0.9058823529411765" d="M 144.5 309 L 145 311.5 L 144 311.5 L 144.5 309 Z "></path><path fill="rgb(135,117,76)" stroke="rgb(135,117,76)" stroke-width="1" opacity="0.9058823529411765" d="M 121.5 310 L 121 311.5 L 119.5 314 L 120 312.5 L 121.5 310 Z "></path><path fill="rgb(135,117,76)" stroke="rgb(135,117,76)" stroke-width="1" opacity="0.9058823529411765" d="M 216.5 311 L 217 313 L 214 312.5 L 216.5 311 Z "></path><path fill="rgb(135,117,76)" stroke="rgb(135,117,76)" stroke-width="1" opacity="0.9058823529411765" d="M 305.5 312 L 308 316.5 L 306 315.5 L 305.5 312 Z "></path><path fill="rgb(135,117,76)" stroke="rgb(135,117,76)" stroke-width="1" opacity="0.9058823529411765" d="M 335.5 312 L 336 313.5 L 333.5 317 L 333 315.5 L 335.5 312 Z "></path><path fill="rgb(135,117,76)" stroke="rgb(135,117,76)" stroke-width="1" opacity="0.9058823529411765" d="M 363.5 312 L 366 316.5 L 364 315.5 L 363.5 312 Z "></path><path fill="rgb(135,117,76)" stroke="rgb(135,117,76)" stroke-width="1" opacity="0.9058823529411765" d="M 240.5 313 L 241.5 315 L 240.5 313 Z "></path><path fill="rgb(135,117,76)" stroke="rgb(135,117,76)" stroke-width="1" opacity="0.9058823529411765" d="M 237.5 315 L 240 319.5 L 239 319.5 L 237.5 315 Z "></path><path fill="rgb(135,117,76)" stroke="rgb(135,117,76)" stroke-width="1" opacity="0.9058823529411765" d="M 413.5 315 L 416 319.5 L 413 321.5 L 413.5 315 Z "></path><path fill="rgb(135,117,76)" stroke="rgb(135,117,76)" stroke-width="1" opacity="0.9058823529411765" d="M 117.5 317 L 118 318.5 L 116 319.5 L 117.5 317 Z "></path><path fill="rgb(135,117,76)" stroke="rgb(135,117,76)" stroke-width="1" opacity="0.9058823529411765" d="M 66.5 318 L 66 319.5 L 65.5 321 L 65 319.5 L 66.5 318 Z "></path><path fill="rgb(135,117,76)" stroke="rgb(135,117,76)" stroke-width="1" opacity="0.9058823529411765" d="M 366.5 319 L 369 324 L 367 323.5 L 367 321.5 L 366.5 319 Z "></path><path fill="rgb(135,117,76)" stroke="rgb(135,117,76)" stroke-width="1" opacity="0.9058823529411765" d="M 331.5 320 L 331 321.5 L 330.5 323 L 330 321.5 L 331.5 320 Z "></path><path fill="rgb(135,117,76)" stroke="rgb(135,117,76)" stroke-width="1" opacity="0.9058823529411765" d="M 309.5 321 L 311 324.5 L 310 324.5 L 309.5 321 Z "></path><path fill="rgb(135,117,76)" stroke="rgb(135,117,76)" stroke-width="1" opacity="0.9058823529411765" d="M 114.5 323 L 115 324.5 L 112.5 328 L 113 326.5 L 114.5 323 Z "></path><path fill="rgb(135,117,76)" stroke="rgb(135,117,76)" stroke-width="1" opacity="0.9058823529411765" d="M 63.5 324 L 63 325.5 L 62.5 327 L 62 325.5 L 63.5 324 Z "></path><path fill="rgb(135,117,76)" stroke="rgb(135,117,76)" stroke-width="1" opacity="0.9058823529411765" d="M 241.5 325 Q 243.8 324.3 243 326.5 L 243.5 328 L 241.5 325 Z "></path><path fill="rgb(135,117,76)" stroke="rgb(135,117,76)" stroke-width="1" opacity="0.9058823529411765" d="M 369.5 325 L 372 329.5 L 371 329.5 L 369.5 325 Z "></path><path fill="rgb(135,117,76)" stroke="rgb(135,117,76)" stroke-width="1" opacity="0.9058823529411765" d="M 244.5 329 L 247 333.5 L 245 332.5 L 244.5 329 Z "></path><path fill="rgb(135,117,76)" stroke="rgb(135,117,76)" stroke-width="1" opacity="0.9058823529411765" d="M 292.5 329 L 295 332.5 L 293 331.5 L 292.5 329 Z "></path><path fill="rgb(135,117,76)" stroke="rgb(135,117,76)" stroke-width="1" opacity="0.9058823529411765" d="M 409.5 329 Q 412.5 330.5 409.5 332 L 409.5 329 Z "></path><path fill="rgb(135,117,76)" stroke="rgb(135,117,76)" stroke-width="1" opacity="0.9058823529411765" d="M 110.5 331 L 111 332.5 L 109 333.5 L 110.5 331 Z "></path><path fill="rgb(135,117,76)" stroke="rgb(135,117,76)" stroke-width="1" opacity="0.9058823529411765" d="M 373.5 333 L 375 335.5 L 374 335.5 L 373.5 333 Z "></path><path fill="rgb(135,117,76)" stroke="rgb(135,117,76)" stroke-width="1" opacity="0.9058823529411765" d="M 408.5 333 L 408 334.5 L 401.5 347 L 401 345.5 L 408.5 333 Z "></path><path fill="rgb(135,117,76)" stroke="rgb(135,117,76)" stroke-width="1" opacity="0.9058823529411765" d="M 315.5 334 L 318 339.5 L 317 339.5 L 315.5 334 Z "></path><path fill="rgb(135,117,76)" stroke="rgb(135,117,76)" stroke-width="1" opacity="0.9058823529411765" d="M 107.5 337 L 108 338.5 L 106 339.5 L 107.5 337 Z "></path><path fill="rgb(135,117,76)" stroke="rgb(135,117,76)" stroke-width="1" opacity="0.9058823529411765" d="M 248.5 338 L 250 340.5 L 249 340.5 L 248.5 338 Z "></path><path fill="rgb(135,117,76)" stroke="rgb(135,117,76)" stroke-width="1" opacity="0.9058823529411765" d="M 321.5 342 L 321.5 345 L 319 344.5 Q 318.3 342.3 320.5 343 L 321.5 342 Z "></path><path fill="rgb(135,117,76)" stroke="rgb(135,117,76)" stroke-width="1" opacity="0.9058823529411765" d="M 103.5 345 L 104 346.5 L 102 347.5 L 103.5 345 Z "></path><path fill="rgb(135,117,76)" stroke="rgb(135,117,76)" stroke-width="1" opacity="0.9058823529411765" d="M 252.5 346 L 254 348.5 L 252 347.5 L 252.5 346 Z "></path><path fill="rgb(135,117,76)" stroke="rgb(135,117,76)" stroke-width="1" opacity="0.9058823529411765" d="M 380.5 347 L 383 351.5 L 381 350.5 L 380.5 347 Z "></path><path fill="rgb(135,117,76)" stroke="rgb(135,117,76)" stroke-width="1" opacity="0.9058823529411765" d="M 255.5 353 L 257 355.5 L 256 355.5 L 255.5 353 Z "></path><path fill="rgb(135,117,76)" stroke="rgb(135,117,76)" stroke-width="1" opacity="0.9058823529411765" d="M 303.5 353 L 304.5 355 L 303.5 353 Z "></path><path fill="rgb(135,117,76)" stroke="rgb(135,117,76)" stroke-width="1" opacity="0.9058823529411765" d="M 383.5 354 L 385 356.5 L 384 356.5 L 383.5 354 Z "></path><path fill="rgb(135,117,76)" stroke="rgb(135,117,76)" stroke-width="1" opacity="0.9058823529411765" d="M 46.5 358 L 47 359.5 L 44.5 363 L 45 361.5 L 46.5 358 Z "></path><path fill="rgb(135,117,76)" stroke="rgb(135,117,76)" stroke-width="1" opacity="0.9058823529411765" d="M 97.5 358 L 97 359.5 L 95.5 363 L 95 361.5 L 97.5 358 Z "></path><path fill="rgb(135,117,76)" stroke="rgb(135,117,76)" stroke-width="1" opacity="0.9058823529411765" d="M 306.5 360 L 310 366.5 L 309 366.5 L 306 361.5 L 306.5 360 Z "></path><path fill="rgb(135,117,76)" stroke="rgb(135,117,76)" stroke-width="1" opacity="0.9058823529411765" d="M 387.5 362 L 390 365.5 L 388 364.5 L 387.5 362 Z "></path><path fill="rgb(135,117,76)" stroke="rgb(135,117,76)" stroke-width="1" opacity="0.9058823529411765" d="M 43.5 364 L 41.5 367 L 43.5 364 Z "></path><path fill="rgb(135,117,76)" stroke="rgb(135,117,76)" stroke-width="1" opacity="0.9058823529411765" d="M 94.5 364 L 95 366 L 91.5 367 L 91.5 366 L 94.5 364 Z "></path><path fill="rgb(135,117,76)" stroke="rgb(135,117,76)" stroke-width="1" opacity="0.9058823529411765" d="M 261.5 365 L 262.5 367 L 261.5 365 Z "></path><path fill="rgb(135,117,76)" stroke="rgb(135,117,76)" stroke-width="1" opacity="0.9058823529411765" d="M 48.5 367 L 52 367.5 L 48.5 368 L 48.5 367 Z "></path><path fill="rgb(214,191,119)" stroke="rgb(214,191,119)" stroke-width="1" opacity="0.7137254901960784" d="M 495.5 84 Q 496.8 86.2 501.5 85 L 506.5 84 L 508.5 85 L 510.5 85 L 514.5 86 L 516.5 86 L 525.5 85 L 526.5 86 L 533 86 L 533 92.5 L 528 101.5 L 527 107.5 L 524 110.5 L 518 122.5 L 517 127.5 L 501 157.5 L 500 162.5 L 480 202.5 L 464 229.5 L 454 252.5 L 449 258.5 L 437 286.5 L 428.5 299 L 428 297.5 L 429 292 Q 431.7 293.1 431 290.5 L 436 283.5 L 460 233.5 L 477 202.5 L 530 96.5 L 528 96 L 496 157.5 L 494 165 Q 491 163.8 492 167.5 L 481 187.5 L 481 190 Q 478 188.8 479 192.5 L 473.5 202 L 474 200.5 L 484 178.5 Q 481.5 177 485 175.5 L 486 172.5 L 485 170 Q 487.7 171.1 487 168.5 L 489 165.5 L 487 165.5 Q 486.5 161.5 489.5 161 L 491 160.5 L 491 158.5 L 489 155.5 L 491 155.5 Q 492.3 150.7 490 149.5 L 491 147.5 L 487.5 139 Q 481.3 140.3 480 136.5 L 481 133.5 L 478 132 L 477.5 134 L 475.5 133 L 475.5 135 L 473 134.5 L 474.5 132 L 471.5 131 L 471 134.5 L 474 136.5 L 471.5 138 L 471 135 Q 468.3 133.9 469 136.5 L 465 139.5 L 466 141.5 L 463 142.5 L 463 144.5 L 456.5 153 L 455 153.5 L 455.5 157 L 454 156.5 L 447 168.5 L 447 171 Q 444.3 169.9 445 172.5 L 440 181.5 L 439 187 Q 436 185.8 437 189.5 L 423 215.5 L 423 218 Q 420.3 216.9 421 219.5 L 414.5 232 L 415 230.5 L 427 203.5 L 435 189.5 L 437 182.5 L 450 158.5 L 454 147.5 L 484 89.5 Q 482.7 86.8 481.5 89 L 479 90.5 L 462 125 L 460 124.5 L 479.5 88 L 486.5 85 L 488.5 85 Q 494 86.5 495.5 84 Z M 493 143 L 491 145 L 493 145 L 493 143 Z M 490 162 L 489 165 L 490 165 L 490 162 Z "></path><path fill="rgb(214,191,119)" stroke="rgb(214,191,119)" stroke-width="1" opacity="0.7137254901960784" d="M 180.5 87 Q 185 86 186 88.5 L 190 95.5 L 191 100.5 L 198 111.5 L 202 123.5 L 212 142.5 L 213 148.5 L 223 166.5 L 223 169.5 L 228 176.5 L 233 191.5 L 251 226.5 L 253 234.5 L 257 239.5 L 277 287.5 L 280 291.5 L 287 309.5 L 301 337.5 L 302 342.5 L 310 358.5 L 311 368 L 306 367.5 L 310 367 L 298 338.5 L 295 334.5 L 290 320.5 L 282 305.5 L 280 298.5 L 262 262.5 L 257 248.5 L 254 244.5 L 220 171.5 L 217 162.5 L 204 137.5 L 202 130.5 L 184 93.5 L 183 88 L 179 90.5 L 156 136.5 L 156 142.5 L 164 158.5 L 162 157.5 L 155 143.5 L 154 138.5 Q 159.7 130.4 162 120 Q 165 121.3 164 117.5 L 178 88 L 180.5 87 Z "></path><path fill="rgb(214,191,119)" stroke="rgb(214,191,119)" stroke-width="1" opacity="0.7137254901960784" d="M 459 126 Q 461.7 124.9 461 127.5 L 404 241.5 L 403 247.5 L 411 264.5 L 409 263.5 L 403 250.5 L 402 243.5 L 409 230.5 L 409 228 Q 412 229.3 411 225.5 L 417 215.5 L 420 206 Q 423 207.3 422 203.5 L 441 165.5 L 441 162.5 L 450 147.5 L 453 138.5 L 456 135.5 L 459 126 Z "></path><path fill="rgb(214,191,119)" stroke="rgb(214,191,119)" stroke-width="1" opacity="0.7137254901960784" d="M 145.5 157 L 148 158.5 L 149 166.5 L 154 173.5 L 168 202.5 L 171 210.5 L 171 215.5 L 163 228.5 L 148 261 L 146 260.5 L 169 215.5 L 169 212.5 L 156 186.5 L 152 175.5 L 146 165.5 L 145.5 158 L 140 166.5 L 133 183.5 L 102 244.5 L 88 275.5 L 44 363.5 L 41.5 366 L 42 364.5 L 44 358 Q 47 359.3 46 355.5 L 57 335.5 L 66 314.5 L 69 311.5 L 71 304.5 L 74 301.5 L 83 279 Q 86 280.3 85 276.5 L 89 267 Q 92 268.3 91 264.5 L 110 227.5 L 111 222 Q 113.7 223.1 113 220.5 L 119 209.5 L 122 200.5 L 125 197.5 L 134 175 Q 137 176.3 136 172.5 L 140 163.5 L 145.5 157 Z "></path><path fill="rgb(214,191,119)" stroke="rgb(214,191,119)" stroke-width="1" opacity="0.7137254901960784" d="M 164.5 160 L 170 170.5 L 168 171 L 164.5 160 Z "></path><path fill="rgb(214,191,119)" stroke="rgb(214,191,119)" stroke-width="1" opacity="0.7137254901960784" d="M 171.5 175 L 176 183.5 L 175 183.5 Q 175.7 180.9 173 182 L 173 179.5 L 171.5 175 Z "></path><path fill="rgb(214,191,119)" stroke="rgb(214,191,119)" stroke-width="1" opacity="0.7137254901960784" d="M 345.5 176 Q 352 175 353 179.5 L 359 191.5 L 362 194.5 L 363 199.5 L 368 207.5 Q 368.9 216.1 374 220.5 L 374 223.5 L 384 242.5 L 383.5 244 Q 386.1 243.2 385 246.5 L 391 257.5 L 393 265 L 395 265.5 L 394.5 267 Q 396.8 266.3 396 268.5 L 415 306.5 L 418 318.5 L 393 368 Q 388.3 369 387 365.5 L 383 355.5 L 384 355.5 L 390.5 367 Q 392.8 367.8 392 365.5 L 411 330.5 L 416 318.5 L 401 289.5 L 396 276.5 L 383 251.5 L 348.5 177 L 345 179.5 L 340 190.5 L 323 215.5 L 322 224.5 L 314 233.5 L 313 240.5 L 341.5 299 L 343 299.5 Q 340 302.5 340 308.5 L 331 323.5 L 330 328.5 L 325 336.5 L 324 342.5 L 322.5 344 L 320.5 345 L 322 342.5 L 322 339.5 L 338 309.5 L 340 300.5 L 326 273.5 L 312 241 Q 308.2 240.3 307 243.5 L 290.5 279 L 290 276.5 L 306 242.5 L 308.5 240 Q 310.8 240.8 310 238.5 L 321 222.5 Q 320.2 216.2 323 213.5 L 339 189.5 L 345.5 176 Z "></path><path fill="rgb(214,191,119)" stroke="rgb(214,191,119)" stroke-width="1" opacity="0.7137254901960784" d="M 176.5 185 L 180 193.5 L 179 193.5 L 176.5 185 Z "></path><path fill="rgb(214,191,119)" stroke="rgb(214,191,119)" stroke-width="1" opacity="0.7137254901960784" d="M 182.5 198 L 184 201.5 L 183 201.5 L 182.5 198 Z "></path><path fill="rgb(214,191,119)" stroke="rgb(214,191,119)" stroke-width="1" opacity="0.7137254901960784" d="M 184.5 203 L 185.5 205 L 184.5 203 Z "></path><path fill="rgb(214,191,119)" stroke="rgb(214,191,119)" stroke-width="1" opacity="0.7137254901960784" d="M 469.5 207 Q 471.8 206.3 471 208.5 L 469 209.5 L 469.5 207 Z "></path><path fill="rgb(214,191,119)" stroke="rgb(214,191,119)" stroke-width="1" opacity="0.7137254901960784" d="M 188.5 211 L 192 218.5 L 190 217.5 L 188.5 211 Z "></path><path fill="rgb(214,191,119)" stroke="rgb(214,191,119)" stroke-width="1" opacity="0.7137254901960784" d="M 467.5 213 L 466.5 215 L 467.5 213 Z "></path><path fill="rgb(214,191,119)" stroke="rgb(214,191,119)" stroke-width="1" opacity="0.7137254901960784" d="M 194.5 225 L 199 233.5 L 198 233.5 L 194.5 225 Z "></path><path fill="rgb(214,191,119)" stroke="rgb(214,191,119)" stroke-width="1" opacity="0.7137254901960784" d="M 413.5 233 L 413 234.5 L 412.5 236 L 412 234.5 L 413.5 233 Z "></path><path fill="rgb(214,191,119)" stroke="rgb(214,191,119)" stroke-width="1" opacity="0.7137254901960784" d="M 199.5 235 L 204 244.5 L 203 244.5 L 199 236.5 L 199.5 235 Z "></path><path fill="rgb(214,191,119)" stroke="rgb(214,191,119)" stroke-width="1" opacity="0.7137254901960784" d="M 410.5 239 L 410 240.5 L 409.5 242 L 409 240.5 L 410.5 239 Z "></path><path fill="rgb(214,191,119)" stroke="rgb(214,191,119)" stroke-width="1" opacity="0.7137254901960784" d="M 408.5 243 L 409 247.5 L 407 246.5 L 408.5 243 Z "></path><path fill="rgb(214,191,119)" stroke="rgb(214,191,119)" stroke-width="1" opacity="0.7137254901960784" d="M 205.5 248 L 207 250.5 L 205 249.5 L 205.5 248 Z "></path><path fill="rgb(214,191,119)" stroke="rgb(214,191,119)" stroke-width="1" opacity="0.7137254901960784" d="M 173.5 253 L 192.5 253 L 195.5 255 L 204 255.5 L 194 256 L 214 302 L 217 303.5 L 218 312.5 L 217 312.5 L 196 265.5 L 190.5 256 L 172.5 256 L 171 257.5 L 160.5 278 L 160 276.5 L 170 258.5 L 171 254 L 173.5 253 Z "></path><path fill="rgb(214,191,119)" stroke="rgb(214,191,119)" stroke-width="1" opacity="0.7137254901960784" d="M 207.5 253 L 208.5 255 L 207.5 253 Z "></path><path fill="rgb(214,191,119)" stroke="rgb(214,191,119)" stroke-width="1" opacity="0.7137254901960784" d="M 145.5 262 L 146 263.5 L 140 274.5 L 138 281.5 L 135.5 284 L 136 282.5 L 145.5 262 Z "></path><path fill="rgb(214,191,119)" stroke="rgb(214,191,119)" stroke-width="1" opacity="0.7137254901960784" d="M 411.5 266 L 416 275 Q 413 276.3 414 272.5 L 411.5 266 Z "></path><path fill="rgb(214,191,119)" stroke="rgb(214,191,119)" stroke-width="1" opacity="0.7137254901960784" d="M 415.5 276 Q 417.8 275.3 417 277.5 L 418 279.5 L 417 279.5 L 415.5 276 Z "></path><path fill="rgb(214,191,119)" stroke="rgb(214,191,119)" stroke-width="1" opacity="0.7137254901960784" d="M 159.5 279 L 159 280.5 L 156.5 285 L 156 283.5 L 159.5 279 Z "></path><path fill="rgb(214,191,119)" stroke="rgb(214,191,119)" stroke-width="1" opacity="0.7137254901960784" d="M 418.5 281 L 423 290.5 L 422 290.5 Q 418.2 286.6 418.5 281 Z "></path><path fill="rgb(214,191,119)" stroke="rgb(214,191,119)" stroke-width="1" opacity="0.7137254901960784" d="M 290.5 282 L 293 286.5 L 291 287 L 290.5 282 Z "></path><path fill="rgb(214,191,119)" stroke="rgb(214,191,119)" stroke-width="1" opacity="0.7137254901960784" d="M 134.5 285 L 134 286.5 L 128.5 298 L 128 296.5 L 134.5 285 Z "></path><path fill="rgb(214,191,119)" stroke="rgb(214,191,119)" stroke-width="1" opacity="0.7137254901960784" d="M 155.5 286 L 156 287.5 L 153.5 291 L 153 289.5 L 155.5 286 Z "></path><path fill="rgb(214,191,119)" stroke="rgb(214,191,119)" stroke-width="1" opacity="0.7137254901960784" d="M 294.5 290 L 296 293.5 L 295 293.5 L 294.5 290 Z "></path><path fill="rgb(214,191,119)" stroke="rgb(214,191,119)" stroke-width="1" opacity="0.7137254901960784" d="M 347.5 290 L 346.5 292 L 347.5 290 Z "></path><path fill="rgb(214,191,119)" stroke="rgb(214,191,119)" stroke-width="1" opacity="0.7137254901960784" d="M 152.5 292 L 152 293.5 L 144 312 L 214 312.5 L 144.5 313 L 143 309.5 L 152.5 292 Z "></path><path fill="rgb(214,191,119)" stroke="rgb(214,191,119)" stroke-width="1" opacity="0.7137254901960784" d="M 423.5 292 L 427 298.5 L 425.5 298 Q 422.9 298.8 424 295.5 L 423.5 292 Z "></path><path fill="rgb(214,191,119)" stroke="rgb(214,191,119)" stroke-width="1" opacity="0.7137254901960784" d="M 296.5 295 L 299 299.5 L 297 298.5 L 296.5 295 Z "></path><path fill="rgb(214,191,119)" stroke="rgb(214,191,119)" stroke-width="1" opacity="0.7137254901960784" d="M 127.5 299 L 128 300.5 L 121 315.5 L 118.5 318 L 118 316.5 L 127.5 299 Z "></path><path fill="rgb(214,191,119)" stroke="rgb(214,191,119)" stroke-width="1" opacity="0.7137254901960784" d="M 228.5 301 L 232 303.5 L 229.5 302 L 228.5 301 Z "></path><path fill="rgb(214,191,119)" stroke="rgb(214,191,119)" stroke-width="1" opacity="0.7137254901960784" d="M 357.5 301 L 359 304.5 L 358 304.5 L 357.5 301 Z "></path><path fill="rgb(214,191,119)" stroke="rgb(214,191,119)" stroke-width="1" opacity="0.7137254901960784" d="M 301.5 305 L 305 311.5 L 302 309.5 L 301.5 305 Z "></path><path fill="rgb(214,191,119)" stroke="rgb(214,191,119)" stroke-width="1" opacity="0.7137254901960784" d="M 232.5 306 L 234 308.5 L 233 308.5 L 232.5 306 Z "></path><path fill="rgb(214,191,119)" stroke="rgb(214,191,119)" stroke-width="1" opacity="0.7137254901960784" d="M 361.5 309 L 363 312.5 L 362 312.5 L 361.5 309 Z "></path><path fill="rgb(214,191,119)" stroke="rgb(214,191,119)" stroke-width="1" opacity="0.7137254901960784" d="M 234.5 310 L 237 314.5 L 235 313.5 L 234.5 310 Z "></path><path fill="rgb(214,191,119)" stroke="rgb(214,191,119)" stroke-width="1" opacity="0.7137254901960784" d="M 363.5 314 L 366 317.5 L 364 318 L 363.5 314 Z "></path><path fill="rgb(214,191,119)" stroke="rgb(214,191,119)" stroke-width="1" opacity="0.7137254901960784" d="M 306.5 316 L 309 322.5 L 308 322.5 L 306.5 316 Z "></path><path fill="rgb(214,191,119)" stroke="rgb(214,191,119)" stroke-width="1" opacity="0.7137254901960784" d="M 238.5 318 L 242 324.5 L 240 325 L 238.5 318 Z "></path><path fill="rgb(214,191,119)" stroke="rgb(214,191,119)" stroke-width="1" opacity="0.7137254901960784" d="M 117.5 319 L 118 320.5 L 95.5 365 L 95 363.5 L 117.5 319 Z "></path><path fill="rgb(214,191,119)" stroke="rgb(214,191,119)" stroke-width="1" opacity="0.7137254901960784" d="M 368.5 324 L 372 330.5 L 370 329.5 L 368.5 324 Z "></path><path fill="rgb(214,191,119)" stroke="rgb(214,191,119)" stroke-width="1" opacity="0.7137254901960784" d="M 310.5 325 L 315 334.5 L 313 333.5 L 310.5 325 Z "></path><path fill="rgb(214,191,119)" stroke="rgb(214,191,119)" stroke-width="1" opacity="0.7137254901960784" d="M 241.5 326 L 244 329.5 L 243 329.5 L 241.5 326 Z "></path><path fill="rgb(214,191,119)" stroke="rgb(214,191,119)" stroke-width="1" opacity="0.7137254901960784" d="M 244.5 331 L 254 350.5 L 251 348.5 L 249 341.5 L 244 332.5 L 244.5 331 Z "></path><path fill="rgb(214,191,119)" stroke="rgb(214,191,119)" stroke-width="1" opacity="0.7137254901960784" d="M 373.5 334 L 383 353.5 L 380 351.5 L 378 344.5 L 373 335.5 L 373.5 334 Z "></path><path fill="rgb(214,191,119)" stroke="rgb(214,191,119)" stroke-width="1" opacity="0.7137254901960784" d="M 316.5 338 L 319 344 Q 316 345.3 317 341.5 L 316.5 338 Z "></path><path fill="rgb(214,191,119)" stroke="rgb(214,191,119)" stroke-width="1" opacity="0.7137254901960784" d="M 254.5 352 L 262.5 367 L 305 367.5 L 262.5 368 L 260 364 Q 257.3 365.1 258 362.5 L 254.5 352 Z "></path><path fill="rgb(214,191,119)" stroke="rgb(214,191,119)" stroke-width="1" opacity="0.7137254901960784" d="M 52.5 367 L 91 367.5 L 52.5 368 L 52.5 367 Z "></path><path fill="rgb(126,93,21)" stroke="rgb(126,93,21)" stroke-width="1" opacity="0.996078431372549" d="M 177.5 101 L 176.5 103 L 177.5 101 Z "></path><path fill="rgb(126,93,21)" stroke="rgb(126,93,21)" stroke-width="1" opacity="0.996078431372549" d="M 186.5 101 Q 189 102.2 188 106 Q 190.7 104.9 190 107.5 L 195 119.5 L 194 119.5 L 193.5 118 L 192 118.5 L 193 116.5 L 191 116 Q 192.3 110.7 189 111.5 L 189 108.5 Q 184.8 105.9 186.5 101 Z "></path><path fill="rgb(126,93,21)" stroke="rgb(126,93,21)" stroke-width="1" opacity="0.996078431372549" d="M 175.5 105 L 175 106.5 L 174.5 108 L 174 106.5 L 175.5 105 Z "></path><path fill="rgb(126,93,21)" stroke="rgb(126,93,21)" stroke-width="1" opacity="0.996078431372549" d="M 174.5 119 L 174 120.5 L 173.5 122 L 173 120.5 L 174.5 119 Z "></path><path fill="rgb(126,93,21)" stroke="rgb(126,93,21)" stroke-width="1" opacity="0.996078431372549" d="M 171.5 121 L 172 123.5 L 171 123.5 L 171.5 121 Z "></path><path fill="rgb(126,93,21)" stroke="rgb(126,93,21)" stroke-width="1" opacity="0.996078431372549" d="M 194 121 L 197 122.5 L 218 169.5 L 231 194.5 L 232 200 Q 235.3 198.7 234 203.5 L 254 243.5 L 254 246.5 L 286 314.5 L 285.5 316 Q 287.8 315.3 287 317.5 L 289 320.5 Q 286.5 322 290 323.5 L 293 330.5 L 292.5 332 L 295 333.5 L 296 336.5 L 295.5 338 Q 297.8 337.3 297 339.5 L 299 342.5 L 298 345 Q 300.7 343.9 300 346.5 L 301 352 Q 303.7 350.9 303 353.5 L 306 358.5 L 305 364 L 265.5 364 L 263 361.5 L 260 355.5 L 260.5 354 L 258 352.5 L 257 350.5 L 258 348 L 255 346.5 L 253 341.5 L 254 339 L 251 337.5 L 246 326.5 L 247 324.5 L 244 323.5 L 245 321.5 L 243 320.5 L 244 318.5 L 242 318.5 L 240 314.5 L 241 313.5 L 238 310.5 L 236 305.5 L 237 303.5 L 235 303.5 L 234 300.5 L 234 298.5 L 233.5 297 L 232 297.5 L 233 293.5 L 230.5 289 L 229.5 292 L 226 285.5 L 228 286.5 L 228.5 288 L 229 285.5 L 215.5 257 L 215 259.5 L 216 261.5 L 215 261.5 L 213 256.5 L 215 256.5 L 213.5 254 L 212 254.5 L 210 249 L 212 248.5 L 209 248 L 207 242.5 L 208 239.5 L 205.5 235 L 205 237.5 L 206 239.5 L 205 239.5 L 203 235.5 L 205 235 L 203.5 232 L 202.5 234 L 200 229.5 L 202 230.5 L 202.5 232 L 203 229.5 L 200.5 226 L 199.5 228 L 199 226.5 L 200 223.5 L 199 221 L 196 220.5 L 197 215.5 L 195 214.5 L 194.5 216 L 192 211.5 L 193 207.5 L 192 205 L 189.5 206 L 190 204.5 L 190 200.5 L 188 195 Q 184.7 196.3 186 191.5 L 185 187 Q 182.3 188.1 183 185.5 L 182.5 183 Q 179.5 183.9 181 179.5 L 167 152.5 L 168 150.5 L 165 150.5 L 164.5 152 L 162 147.5 L 164 148.5 L 164.5 150 L 167 149.5 Q 167.7 146.9 165 148 L 165 145.5 L 163 137.5 L 165 133.5 L 166 129 Q 168.7 130.1 168 127.5 L 169.5 124 L 171 127 L 169 127.5 L 170 129.5 L 169 133 Q 166.3 131.9 167 134.5 L 169 135.5 L 171 129.5 L 174 126.5 L 174.5 123 L 175.5 128 L 176.5 126 L 177 127.5 L 173.5 133 L 171 132 L 172.5 135 Q 175.8 136.1 175 133.5 L 176.5 130 L 179 137.5 L 178 137.5 L 176.5 133 L 176 137 L 172.5 136 L 171 138.5 Q 173 142.2 175 140.5 L 175.5 142 L 176 140 L 180 142.5 L 182.5 147 Q 185.1 146.3 184 149 L 186 149 L 186 152 Q 189 150.8 188 154.5 L 191.5 157 L 193.5 156 Q 195 158.5 196.5 155 L 198 155.5 L 196.5 159 L 195.5 157 L 193.5 160 Q 190.9 159.2 192 162.5 L 196 160.5 L 197 164.5 L 196.5 166 L 199 164.5 L 199.5 162 L 202.5 163 L 204 162.5 L 205.5 165 L 206 159 L 203.5 160 L 203 156 Q 205.7 154.9 205 157.5 L 206 157.5 L 206.5 155 L 210 155.5 L 207.5 150 L 204.5 152 L 205 150.5 L 205.5 149 L 207 149.5 L 207 147 Q 204.3 148.1 205 145.5 L 206 144.5 L 203 141.5 L 200 135.5 L 200 133.5 L 194 121 Z M 172 141 L 169 142 Q 166 144 169 145 L 172 147 L 173 148 L 172 141 Z M 173 152 L 173 154 L 175 155 Q 176 151 173 152 Z M 209 156 L 208 159 L 211 162 L 212 160 Q 213 157 209 158 L 209 156 Z M 175 158 L 174 161 L 175 161 L 175 158 Z M 209 160 L 208 163 L 209 163 L 209 160 Z M 177 161 L 176 164 L 177 164 L 177 161 Z M 213 163 L 213 168 Q 214 170 210 169 L 210 168 L 208 167 L 209 172 L 212 172 L 214 171 L 211 175 L 214 175 L 216 172 Q 217 165 213 163 Z M 219 174 L 217 177 Q 219 180 220 177 L 219 174 Z M 215 175 L 216 179 L 217 176 L 215 175 Z M 220 179 L 219 182 L 221 185 L 224 185 L 220 179 Z M 221 189 L 220 192 L 221 192 L 221 189 Z M 234 206 L 232 208 L 234 208 L 234 206 Z M 213 250 L 212 253 L 213 253 L 213 250 Z "></path><path fill="rgb(126,93,21)" stroke="rgb(126,93,21)" stroke-width="1" opacity="0.996078431372549" d="M 463.5 128 L 462.5 130 L 463.5 128 Z "></path><path fill="rgb(126,93,21)" stroke="rgb(126,93,21)" stroke-width="1" opacity="0.996078431372549" d="M 161.5 134 L 160.5 136 L 161.5 134 Z "></path><path fill="rgb(126,93,21)" stroke="rgb(126,93,21)" stroke-width="1" opacity="0.996078431372549" d="M 160.5 143 L 162 145.5 L 161 145.5 L 160.5 143 Z "></path><path fill="rgb(126,93,21)" stroke="rgb(126,93,21)" stroke-width="1" opacity="0.996078431372549" d="M 165.5 153 L 169 159.5 L 167 158.5 L 165.5 153 Z "></path><path fill="rgb(126,93,21)" stroke="rgb(126,93,21)" stroke-width="1" opacity="0.996078431372549" d="M 170.5 164 L 172 166.5 L 171 166.5 L 170.5 164 Z "></path><path fill="rgb(126,93,21)" stroke="rgb(126,93,21)" stroke-width="1" opacity="0.996078431372549" d="M 144.5 165 L 148 169.5 L 162 199.5 L 161 200.5 L 164 203.5 L 167 209.5 L 166 212 Q 169.3 210.7 168 215.5 L 163.5 225 L 162 224.5 L 163 226.5 L 160.5 231 L 159 230.5 L 160 232.5 L 157 234.5 L 158 236.5 L 157 236.5 L 156.5 235 L 155 237.5 L 157 238.5 L 153.5 245 Q 152.3 242.7 151 245.5 L 151.5 247 L 153 246.5 L 150 248.5 L 151 250.5 L 150 250.5 L 149.5 249 L 148 252.5 L 150 252.5 L 147.5 257 L 147 255.5 L 148 253.5 L 146 254.5 Q 145.2 260.7 141 263.5 L 139 270.5 L 128 289.5 L 126 297 Q 123.3 295.9 124 298.5 L 116.5 311 L 114.5 310 L 114 312 Q 111.3 313.1 112 310.5 L 109 309 L 105 317.5 Q 106.8 320.8 108.5 317 L 111.5 319 L 113.5 318 L 113.5 319 L 111.5 320 L 108 319 L 110 322.5 L 104 323 Q 103 326 106 325 L 106 327.5 L 106.5 329 Q 105 325.5 103.5 328 L 100 325.5 L 98.5 323 L 96 321.5 L 93.5 316 Q 89 317 88 314.5 L 87.5 312 L 87 315 L 83.5 314 L 82 314.5 Q 81.3 310.8 83.5 310 L 84 312 L 87 311.5 L 86 307.5 L 86.5 306 Q 84.3 306.8 85 304.5 L 85.5 303 L 83.5 304 L 83 302.5 Q 86.5 301 84 299.5 L 83.5 296 L 81.5 300 L 80 299.5 L 83.5 293 L 84.5 296 L 85 292.5 L 84 290.5 L 87 289 L 87.5 284 L 89.5 285 L 88 282.5 L 90 280.5 Q 90.3 274.3 94 271.5 L 94 268.5 L 99 261.5 Q 101.3 251.3 107 244.5 L 108 239.5 L 124 209.5 L 126 202.5 L 134 187 L 136 186.5 L 135 184.5 L 137.5 181 L 139 181.5 L 138 178.5 L 140 178.5 L 139 176.5 L 140.5 174 L 141.5 176 L 144 170.5 L 143 168.5 L 144 168.5 L 144.5 170 L 145 167.5 L 144.5 165 Z M 91 285 Q 89 288 92 287 L 91 285 Z M 87 291 L 87 294 Q 90 293 87 291 Z M 89 293 L 87 296 L 89 296 L 89 293 Z M 85 296 L 85 298 L 87 299 Q 88 295 85 296 Z M 105 309 Q 104 313 107 312 Q 108 308 105 309 Z "></path><path fill="rgb(126,93,21)" stroke="rgb(126,93,21)" stroke-width="1" opacity="0.996078431372549" d="M 173.5 170 L 175 173.5 L 174 173.5 L 173.5 170 Z "></path><path fill="rgb(126,93,21)" stroke="rgb(126,93,21)" stroke-width="1" opacity="0.996078431372549" d="M 176.5 177 L 178 179.5 L 177 179.5 L 176.5 177 Z "></path><path fill="rgb(126,93,21)" stroke="rgb(126,93,21)" stroke-width="1" opacity="0.996078431372549" d="M 347.5 186 L 346.5 188 L 347.5 186 Z "></path><path fill="rgb(126,93,21)" stroke="rgb(126,93,21)" stroke-width="1" opacity="0.996078431372549" d="M 130.5 189 L 129.5 191 L 130.5 189 Z "></path><path fill="rgb(126,93,21)" stroke="rgb(126,93,21)" stroke-width="1" opacity="0.996078431372549" d="M 183.5 191 L 185 194.5 L 184 194.5 L 183.5 191 Z "></path><path fill="rgb(126,93,21)" stroke="rgb(126,93,21)" stroke-width="1" opacity="0.996078431372549" d="M 337.5 202 L 336.5 204 L 337.5 202 Z "></path><path fill="rgb(126,93,21)" stroke="rgb(126,93,21)" stroke-width="1" opacity="0.996078431372549" d="M 190.5 208 Q 192.8 207.3 192 209.5 L 190.5 208 Z "></path><path fill="rgb(126,93,21)" stroke="rgb(126,93,21)" stroke-width="1" opacity="0.996078431372549" d="M 422.5 212 L 421.5 214 L 422.5 212 Z "></path><path fill="rgb(126,93,21)" stroke="rgb(126,93,21)" stroke-width="1" opacity="0.996078431372549" d="M 467.5 216 L 468 218.5 L 467 218.5 L 467.5 216 Z "></path><path fill="rgb(126,93,21)" stroke="rgb(126,93,21)" stroke-width="1" opacity="0.996078431372549" d="M 465 220 L 467 220.5 L 464.5 225 L 464 222.5 L 465 220 Z "></path><path fill="rgb(126,93,21)" stroke="rgb(126,93,21)" stroke-width="1" opacity="0.996078431372549" d="M 197.5 222 L 199 224.5 L 197 223.5 L 197.5 222 Z "></path><path fill="rgb(126,93,21)" stroke="rgb(126,93,21)" stroke-width="1" opacity="0.996078431372549" d="M 330.5 236 L 332 238.5 L 330 237.5 L 330.5 236 Z "></path><path fill="rgb(126,93,21)" stroke="rgb(126,93,21)" stroke-width="1" opacity="0.996078431372549" d="M 311.5 242 L 312 243.5 L 310 244.5 L 311.5 242 Z "></path><path fill="rgb(126,93,21)" stroke="rgb(126,93,21)" stroke-width="1" opacity="0.996078431372549" d="M 333.5 243 L 334.5 245 L 333.5 243 Z "></path><path fill="rgb(126,93,21)" stroke="rgb(126,93,21)" stroke-width="1" opacity="0.996078431372549" d="M 379.5 244 L 381 248.5 L 379 247.5 L 379.5 244 Z "></path><path fill="rgb(126,93,21)" stroke="rgb(126,93,21)" stroke-width="1" opacity="0.996078431372549" d="M 336.5 249 L 338 251.5 L 337 251.5 L 336.5 249 Z "></path><path fill="rgb(126,93,21)" stroke="rgb(126,93,21)" stroke-width="1" opacity="0.996078431372549" d="M 316.5 255 L 322 264.5 L 327 278 Q 330 276.8 329 280.5 L 339 300.5 L 339 304.5 L 323.5 335 L 323 332.5 Q 325.3 331.3 322.5 330 L 322 332 L 320 331.5 L 320.5 330 Q 318.3 330.8 319 328.5 L 317 323 L 315 322.5 L 316 320.5 L 301 291.5 L 301.5 290 L 300 289.5 L 300.5 288 Q 297.9 288.8 299 285.5 L 297 278.5 L 306 260 Q 308.7 258.9 308 261.5 Q 304.9 263.3 306.5 265 L 305 265.5 L 305.5 268 Q 310.3 266.3 309 270.5 L 308.5 272 L 311 270.5 L 311.5 269 L 312.5 275 Q 314.8 272.3 314 266.5 L 315.5 265 L 318.5 267 L 319 265.5 L 318.5 263 L 316.5 264 L 317 262.5 L 316 259.5 Q 318.5 258 315 256.5 L 316.5 255 Z M 318 267 L 316 273 L 318 276 L 319 274 L 318 272 Q 317 269 320 270 L 321 271 Q 322 266 320 267 L 318 267 Z M 305 268 L 304 270 Q 302 271 305 272 L 307 272 L 305 268 Z M 323 271 L 321 273 Q 322 276 319 275 L 320 280 L 319 282 L 321 285 L 323 284 Q 321 286 324 288 L 323 292 L 325 291 Q 327 290 326 293 Q 329 294 325 296 L 328 300 Q 327 303 331 302 L 330 306 L 331 307 L 333 306 L 332 309 Q 331 311 334 310 L 336 306 L 337 303 L 331 290 Q 332 287 329 288 L 329 285 L 325 287 L 328 283 L 327 281 Q 328 278 325 279 L 325 278 L 323 271 Z M 315 275 L 315 278 Q 318 277 315 275 Z M 319 287 L 318 290 L 319 290 L 319 287 Z M 322 291 L 321 293 L 323 294 L 322 291 Z "></path><path fill="rgb(126,93,21)" stroke="rgb(126,93,21)" stroke-width="1" opacity="0.996078431372549" d="M 195.5 256 L 194.5 258 L 195.5 256 Z "></path><path fill="rgb(126,93,21)" stroke="rgb(126,93,21)" stroke-width="1" opacity="0.996078431372549" d="M 339.5 256 L 341 258.5 L 340 258.5 L 339.5 256 Z "></path><path fill="rgb(126,93,21)" stroke="rgb(126,93,21)" stroke-width="1" opacity="0.996078431372549" d="M 187.5 257 L 190 258 L 190.5 260 Q 191.8 257.8 193 260.5 L 194 263.5 L 193 265.5 L 195 265.5 L 197 269.5 L 195 269.5 L 197.5 275 L 199 274.5 L 200 281 L 203 282.5 L 204 284.5 L 202 284.5 L 203.5 287 L 205 287.5 L 204 289.5 L 207 290.5 L 208 293.5 L 206 293.5 L 207.5 297 L 209 296.5 L 210 298.5 L 209.5 300 L 211 300.5 L 210 302.5 L 212 302.5 L 213 304.5 L 211 305.5 L 213 306 L 212 310 L 208.5 309 L 207.5 310 L 157.5 310 L 155.5 310 Q 149.5 311.5 148 308.5 L 161 285.5 L 162 281 Q 165 282.3 164 278.5 L 169 267.5 L 175.5 258 L 186.5 258 L 187.5 257 Z "></path><path fill="rgb(126,93,21)" stroke="rgb(126,93,21)" stroke-width="1" opacity="0.996078431372549" d="M 314.5 258 L 315 261 Q 312.3 262.1 313 259.5 L 314.5 258 Z "></path><path fill="rgb(126,93,21)" stroke="rgb(126,93,21)" stroke-width="1" opacity="0.996078431372549" d="M 313.5 263 L 314 265 L 312 264.5 L 313.5 263 Z "></path><path fill="rgb(126,93,21)" stroke="rgb(126,93,21)" stroke-width="1" opacity="0.996078431372549" d="M 217.5 266 L 218.5 268 L 217.5 266 Z "></path><path fill="rgb(126,93,21)" stroke="rgb(126,93,21)" stroke-width="1" opacity="0.996078431372549" d="M 299.5 267 L 298.5 269 L 299.5 267 Z "></path><path fill="rgb(126,93,21)" stroke="rgb(126,93,21)" stroke-width="1" opacity="0.996078431372549" d="M 220.5 272 L 222 274.5 L 221 274.5 L 220.5 272 Z "></path><path fill="rgb(126,93,21)" stroke="rgb(126,93,21)" stroke-width="1" opacity="0.996078431372549" d="M 322.5 275 L 323 278.5 L 322 278.5 L 322.5 275 Z "></path><path fill="rgb(126,93,21)" stroke="rgb(126,93,21)" stroke-width="1" opacity="0.996078431372549" d="M 349.5 277 L 351 279.5 L 350 279.5 L 349.5 277 Z "></path><path fill="rgb(126,93,21)" stroke="rgb(126,93,21)" stroke-width="1" opacity="0.996078431372549" d="M 223.5 279 L 225 281.5 L 224 281.5 L 223.5 279 Z "></path><path fill="rgb(126,93,21)" stroke="rgb(126,93,21)" stroke-width="1" opacity="0.996078431372549" d="M 323.5 280 L 326 281 Q 327.1 284.3 323 283 L 323.5 280 Z "></path><path fill="rgb(126,93,21)" stroke="rgb(126,93,21)" stroke-width="1" opacity="0.996078431372549" d="M 396.5 280 L 397 282.5 L 396 282.5 L 396.5 280 Z "></path><path fill="rgb(126,93,21)" stroke="rgb(126,93,21)" stroke-width="1" opacity="0.996078431372549" d="M 135.5 281 L 134.5 283 L 135.5 281 Z "></path><path fill="rgb(126,93,21)" stroke="rgb(126,93,21)" stroke-width="1" opacity="0.996078431372549" d="M 400.5 290 L 401.5 292 L 400.5 290 Z "></path><path fill="rgb(126,93,21)" stroke="rgb(126,93,21)" stroke-width="1" opacity="0.996078431372549" d="M 210.5 292 L 211.5 294 L 210.5 292 Z "></path><path fill="rgb(126,93,21)" stroke="rgb(126,93,21)" stroke-width="1" opacity="0.996078431372549" d="M 329.5 294 L 331 294.5 L 327.5 296 L 327.5 295 L 329.5 294 Z "></path><path fill="rgb(126,93,21)" stroke="rgb(126,93,21)" stroke-width="1" opacity="0.996078431372549" d="M 360.5 299 L 362 301.5 L 360 300.5 L 360.5 299 Z "></path><path fill="rgb(126,93,21)" stroke="rgb(126,93,21)" stroke-width="1" opacity="0.996078431372549" d="M 406.5 301 L 408 306 Q 411 304.8 410 308.5 L 411 310.5 L 410 310.5 L 406 303.5 L 406.5 301 Z "></path><path fill="rgb(126,93,21)" stroke="rgb(126,93,21)" stroke-width="1" opacity="0.996078431372549" d="M 124.5 303 L 123.5 305 L 124.5 303 Z "></path><path fill="rgb(126,93,21)" stroke="rgb(126,93,21)" stroke-width="1" opacity="0.996078431372549" d="M 363.5 306 L 365 308.5 L 364 308.5 L 363.5 306 Z "></path><path fill="rgb(126,93,21)" stroke="rgb(126,93,21)" stroke-width="1" opacity="0.996078431372549" d="M 121.5 309 L 120.5 311 L 121.5 309 Z "></path><path fill="rgb(126,93,21)" stroke="rgb(126,93,21)" stroke-width="1" opacity="0.996078431372549" d="M 214.5 309 L 215.5 311 L 214.5 309 Z "></path><path fill="rgb(126,93,21)" stroke="rgb(126,93,21)" stroke-width="1" opacity="0.996078431372549" d="M 115 312 L 117 312.5 L 115.5 315 L 115 312 Z "></path><path fill="rgb(126,93,21)" stroke="rgb(126,93,21)" stroke-width="1" opacity="0.996078431372549" d="M 308.5 312 L 309.5 314 L 308.5 312 Z "></path><path fill="rgb(126,93,21)" stroke="rgb(126,93,21)" stroke-width="1" opacity="0.996078431372549" d="M 109 313 L 111.5 314 L 113.5 313 L 113.5 314 L 112 314.5 L 112.5 316 L 109 314.5 L 109 313 Z "></path><path fill="rgb(126,93,21)" stroke="rgb(126,93,21)" stroke-width="1" opacity="0.996078431372549" d="M 367.5 313 L 369 316.5 L 368 316.5 L 367.5 313 Z "></path><path fill="rgb(126,93,21)" stroke="rgb(126,93,21)" stroke-width="1" opacity="0.996078431372549" d="M 369.5 318 L 371 320.5 L 370 320.5 L 369.5 318 Z "></path><path fill="rgb(126,93,21)" stroke="rgb(126,93,21)" stroke-width="1" opacity="0.996078431372549" d="M 77.5 319 L 80 319.5 L 77.5 320 L 77.5 319 Z "></path><path fill="rgb(126,93,21)" stroke="rgb(126,93,21)" stroke-width="1" opacity="0.996078431372549" d="M 407.5 332 L 408 333.5 L 405 335.5 L 407.5 332 Z "></path><path fill="rgb(126,93,21)" stroke="rgb(126,93,21)" stroke-width="1" opacity="0.996078431372549" d="M 376.5 333 L 377.5 335 L 376.5 333 Z "></path><path fill="rgb(126,93,21)" stroke="rgb(126,93,21)" stroke-width="1" opacity="0.996078431372549" d="M 382.5 337 L 383 339.5 L 382 339.5 L 382.5 337 Z "></path><path fill="rgb(126,93,21)" stroke="rgb(126,93,21)" stroke-width="1" opacity="0.996078431372549" d="M 404.5 337 L 405 338.5 L 395.5 357 L 395 353.5 L 404.5 337 Z "></path><path fill="rgb(126,93,21)" stroke="rgb(126,93,21)" stroke-width="1" opacity="0.996078431372549" d="M 379.5 339 L 381 341.5 L 380 341.5 L 379.5 339 Z "></path><path fill="rgb(126,93,21)" stroke="rgb(126,93,21)" stroke-width="1" opacity="0.996078431372549" d="M 383.5 347 L 385 349.5 L 384 349.5 L 383.5 347 Z "></path><path fill="rgb(126,93,21)" stroke="rgb(126,93,21)" stroke-width="1" opacity="0.996078431372549" d="M 97.5 357 L 96.5 359 L 97.5 357 Z "></path><path fill="rgb(126,93,21)" stroke="rgb(126,93,21)" stroke-width="1" opacity="0.996078431372549" d="M 391.5 363 L 392 365.5 L 391 365.5 L 391.5 363 Z "></path><path fill="rgb(170,132,26)" stroke="rgb(170,132,26)" stroke-width="1" opacity="0.996078431372549" d="M 528 96 L 530 96.5 L 518 117.5 L 513 130 L 511 130.5 L 512 132.5 L 505.5 144 L 504 144.5 L 505 146.5 L 495 164.5 L 495 167 L 493 167.5 L 493 169.5 L 491.5 172 Q 489.3 171.3 490 173.5 L 490 175.5 L 472 212 L 470 212.5 L 470 214.5 L 468.5 218 L 467.5 216 L 467 218.5 L 467.5 220 Q 464.2 218.9 465 221.5 L 467 221.5 L 465.5 224 L 464.5 222 L 464 224.5 Q 466.5 226 463 227.5 L 461.5 231 L 460 230.5 L 461 232.5 L 455.5 243 L 454 242.5 L 455 244.5 L 431 292 Q 428.3 290.9 429 293.5 L 428 293.5 L 425 286.5 L 425.5 285 Q 422.5 285.9 424 281.5 L 420 275.5 L 420.5 274 L 419 273.5 L 420 271 L 417 269.5 L 416 266.5 L 416.5 265 L 415 264.5 L 416 262.5 L 414 262.5 L 413 260.5 L 413.5 259 L 412 258.5 L 413 257.5 L 410 254.5 L 407 247.5 L 409 247.5 L 408 242.5 L 410 242 L 411 239.5 L 410 237.5 L 413 236 L 412 233.5 L 414.5 230 L 416 230.5 L 415 228.5 L 417 228.5 L 416 225.5 L 419 224.5 L 418.5 223 L 417 223.5 L 420 222.5 L 419 219.5 L 421 219.5 L 420 217.5 L 422 216.5 L 421.5 218 Q 424.1 218.8 423 215.5 L 437 189.5 L 437 187 Q 439.7 188.1 439 185.5 L 445 171 Q 448 172.3 447 168.5 L 455 155.5 Q 452.8 154.3 455.5 153 L 457 152.5 L 456.5 151 L 458 151.5 L 457 149.5 Q 459 151.2 461 147.5 L 463.5 142 Q 464.8 144.3 466 141.5 L 465 139.5 L 469 136.5 Q 468.3 133.9 471 135 L 471 131.5 L 472.5 132 L 477.5 134 L 478 132 L 481 133.5 L 480 136.5 L 482.5 139 Q 487.8 137.8 489 140.5 L 491 148.5 L 491 150.5 L 490.5 156 L 489 155.5 L 491 158.5 L 490.5 161 L 489 161.5 L 490 164.5 L 487 170 Q 484.3 168.9 485 171.5 L 485 173.5 L 483 177.5 L 483 179.5 L 478 189.5 L 478 192.5 L 479 192.5 L 479 190 Q 482 191.3 481 187.5 L 492 167.5 L 492 165 Q 495 166.3 494 162.5 L 497.5 156 L 499 155.5 L 499 153.5 L 500.5 150 L 502 149.5 L 501 147.5 L 525 103.5 L 525 101 Q 528 102.3 527 98.5 L 528 96 Z M 472 135 L 472 138 L 474 137 L 472 135 Z M 489 162 L 487 166 L 489 165 L 489 162 Z M 478 193 L 476 197 L 478 196 L 478 193 Z M 476 197 L 474 199 L 475 201 L 476 199 L 476 197 Z M 470 207 L 471 209 Q 472 206 470 207 Z "></path><path fill="rgb(170,132,26)" stroke="rgb(170,132,26)" stroke-width="1" opacity="0.996078431372549" d="M 181 99 L 186 101.5 L 187.5 106 L 188 104 Q 191 103 190 106 Q 187.3 104.9 188 107.5 L 189 112 Q 192 113.3 191 109.5 L 192 109.5 L 193 111.5 L 191 112 L 191 116 L 192.5 116 L 192 117.5 L 192.5 119 L 194.5 116 L 196 118.5 L 194 118.5 Q 193.2 121.1 196.5 120 L 196.5 121 Q 193.2 119.9 194 122.5 L 201 134.5 L 201 136.5 L 206 144.5 L 205 147 Q 208 145.8 207 149.5 L 210 155.5 L 209 158 Q 212.8 156.5 212 159.5 L 210.5 162 L 209.5 160 L 207.5 164 L 208 162.5 L 209 159.5 L 206.5 155 L 205.5 158 L 205 156 Q 201.7 154.7 203 159.5 L 204.5 159 Q 207.3 158.4 206 164.5 L 204 163.5 L 203.5 162 L 200.5 163 L 199 162.5 L 197.5 166 L 196 165.5 L 197 163.5 L 195.5 160 L 192 162.5 Q 190.9 159.2 193.5 160 L 195 157.5 L 192.5 156 L 190.5 156 L 188 154.5 Q 189 150.8 186 152 L 186 149 L 184 149 Q 185.1 146.3 182.5 147 L 177.5 140 Q 175.3 139.3 176 141.5 L 175 141.5 L 174.5 140 Q 172.8 142.8 171 138.5 L 172.5 136 L 176 137 L 175.5 133 L 175 135 L 171 133.5 L 170.5 132 L 167.5 137 L 167 134.5 Q 166.3 131.9 169 133 L 169 130.5 L 170 128.5 L 169.5 127 Q 171.8 127.8 171 125.5 L 170 123.5 L 172 123.5 L 172 118.5 L 175 110 Q 178 111 177 108 L 175 107.5 L 179 105.5 L 181 99 Z M 175 123 L 171 132 L 174 133 L 176 129 L 175 123 Z M 177 130 L 177 136 L 178 136 L 177 130 Z M 206 149 Q 204 152 207 151 L 206 149 Z M 197 155 L 195 157 L 197 159 L 198 156 L 197 155 Z "></path><path fill="rgb(170,132,26)" stroke="rgb(170,132,26)" stroke-width="1" opacity="0.996078431372549" d="M 187.5 100 L 189 102.5 L 187 101.5 L 187.5 100 Z "></path><path fill="rgb(170,132,26)" stroke="rgb(170,132,26)" stroke-width="1" opacity="0.996078431372549" d="M 198.5 124 L 200 127.5 L 199 127.5 L 198.5 124 Z "></path><path fill="rgb(170,132,26)" stroke="rgb(170,132,26)" stroke-width="1" opacity="0.996078431372549" d="M 204.5 138 L 207 141.5 L 205 140.5 L 204.5 138 Z "></path><path fill="rgb(170,132,26)" stroke="rgb(170,132,26)" stroke-width="1" opacity="0.996078431372549" d="M 171.5 141 L 173 147.5 L 171 148.5 L 171.5 147 L 168.5 145 L 166 144.5 L 171.5 141 Z "></path><path fill="rgb(170,132,26)" stroke="rgb(170,132,26)" stroke-width="1" opacity="0.996078431372549" d="M 492.5 143 L 494 145.5 L 492.5 145 L 491 144.5 L 492.5 143 Z "></path><path fill="rgb(170,132,26)" stroke="rgb(170,132,26)" stroke-width="1" opacity="0.996078431372549" d="M 207.5 144 L 210 148.5 L 208 147.5 L 207.5 144 Z "></path><path fill="rgb(170,132,26)" stroke="rgb(170,132,26)" stroke-width="1" opacity="0.996078431372549" d="M 173 152 Q 176 150.8 175 154.5 L 173 153.5 L 173 152 Z "></path><path fill="rgb(170,132,26)" stroke="rgb(170,132,26)" stroke-width="1" opacity="0.996078431372549" d="M 211.5 153 L 214 156.5 L 212 155.5 L 211.5 153 Z "></path><path fill="rgb(170,132,26)" stroke="rgb(170,132,26)" stroke-width="1" opacity="0.996078431372549" d="M 174.5 158 L 175 160.5 L 174 160.5 L 174.5 158 Z "></path><path fill="rgb(170,132,26)" stroke="rgb(170,132,26)" stroke-width="1" opacity="0.996078431372549" d="M 214.5 158 L 217 163.5 L 216 163.5 L 214.5 158 Z "></path><path fill="rgb(170,132,26)" stroke="rgb(170,132,26)" stroke-width="1" opacity="0.996078431372549" d="M 176.5 161 L 177 163.5 L 176 163.5 L 176.5 161 Z "></path><path fill="rgb(170,132,26)" stroke="rgb(170,132,26)" stroke-width="1" opacity="0.996078431372549" d="M 212.5 163 Q 216.4 166.6 217 173.5 L 216 173.5 L 215.5 172 L 214 175 L 217.5 176 L 218.5 174 L 220 176.5 L 218.5 178 L 216 176.5 L 215.5 179 L 213.5 175 L 211 174.5 L 212.5 172 L 210.5 171 L 209 171.5 L 208 167 L 210 167.5 L 209.5 169 Q 213.9 170.5 213 167.5 L 212.5 163 Z "></path><path fill="rgb(170,132,26)" stroke="rgb(170,132,26)" stroke-width="1" opacity="0.996078431372549" d="M 218.5 167 L 220 170.5 L 219 170.5 L 218.5 167 Z "></path><path fill="rgb(170,132,26)" stroke="rgb(170,132,26)" stroke-width="1" opacity="0.996078431372549" d="M 221.5 174 L 223 176.5 L 221 175.5 L 221.5 174 Z "></path><path fill="rgb(170,132,26)" stroke="rgb(170,132,26)" stroke-width="1" opacity="0.996078431372549" d="M 219.5 179 L 224 184.5 L 221 185 L 219 181.5 L 219.5 179 Z "></path><path fill="rgb(170,132,26)" stroke="rgb(170,132,26)" stroke-width="1" opacity="0.996078431372549" d="M 225.5 182 L 227 184.5 L 225 183.5 L 225.5 182 Z "></path><path fill="rgb(170,132,26)" stroke="rgb(170,132,26)" stroke-width="1" opacity="0.996078431372549" d="M 349.5 184 L 350 188 L 355 190.5 L 370 222.5 L 369 224.5 L 371 224.5 L 380 243.5 L 379 247.5 L 380 247.5 L 380.5 245 L 383 250.5 L 382.5 252 Q 384.8 251.3 384 253.5 L 397 279.5 L 396 282.5 L 397 282.5 L 397.5 281 L 410 305.5 L 408 306.5 L 409.5 309 L 410.5 307 L 411 308.5 L 410 310.5 L 413 311.5 L 414 314.5 Q 411.5 316 413 321.5 L 413 323.5 L 410.5 330 Q 409.3 327.8 408 330.5 L 409 332.5 L 406 333.5 L 405 335.5 L 406 337.5 L 404 337.5 L 393.5 357 L 383.5 342 L 382 342.5 L 383 337.5 Q 380 336.3 381 332 Q 377.2 333.5 378 330.5 L 375 324.5 L 375.5 323 Q 372.9 323.8 374 320.5 L 366.5 308 L 365 308.5 L 366 304.5 L 363.5 301 L 362 301.5 L 359 295.5 L 360 291.5 L 359 291.5 L 358.5 293 L 356 289.5 L 357 287.5 L 355 287.5 L 356 284.5 L 354 284.5 L 354 282 Q 351 283.3 352 279.5 L 345 266.5 L 345.5 265 Q 343.3 265.8 344 263.5 L 331 237.5 L 327 227.5 L 327 224 L 325 223.5 L 325 221.5 L 330 216.5 L 349.5 184 Z M 407 301 L 407 306 L 408 306 L 407 301 Z "></path><path fill="rgb(170,132,26)" stroke="rgb(170,132,26)" stroke-width="1" opacity="0.996078431372549" d="M 220.5 189 L 221 191.5 L 220 191.5 L 220.5 189 Z "></path><path fill="rgb(170,132,26)" stroke="rgb(170,132,26)" stroke-width="1" opacity="0.996078431372549" d="M 160.5 195 L 161.5 197 L 160.5 195 Z "></path><path fill="rgb(170,132,26)" stroke="rgb(170,132,26)" stroke-width="1" opacity="0.996078431372549" d="M 233.5 206 L 234 208 L 232 207.5 L 233.5 206 Z "></path><path fill="rgb(170,132,26)" stroke="rgb(170,132,26)" stroke-width="1" opacity="0.996078431372549" d="M 238.5 211 L 240 213.5 L 239 213.5 L 238.5 211 Z "></path><path fill="rgb(170,132,26)" stroke="rgb(170,132,26)" stroke-width="1" opacity="0.996078431372549" d="M 245.5 226 L 246.5 228 L 245.5 226 Z "></path><path fill="rgb(170,132,26)" stroke="rgb(170,132,26)" stroke-width="1" opacity="0.996078431372549" d="M 252.5 240 L 254 242.5 L 252 241.5 L 252.5 240 Z "></path><path fill="rgb(170,132,26)" stroke="rgb(170,132,26)" stroke-width="1" opacity="0.996078431372549" d="M 313.5 246 L 318 256.5 L 317 256.5 L 316.5 255 L 315 256.5 L 317 260.5 Q 315.9 263.8 318.5 263 L 319 265.5 Q 318.3 268.1 321 267 L 321 270.5 L 319.5 270 Q 317.3 269.3 318 271.5 L 319 273.5 L 317.5 276 L 315 271.5 L 317 271.5 L 316 266.5 L 316.5 265 L 314 266.5 Q 314.8 272.3 312.5 275 L 311.5 269 L 309.5 272 L 308 271.5 L 309 268 L 305 268.5 L 307 271.5 L 304.5 272 Q 301.8 270.7 304 269.5 L 306 266.5 L 305.5 265 L 307 264.5 Q 304.5 263 308 261.5 L 307 258.5 L 308 255 Q 311 256.3 310 252.5 L 314 251 L 313.5 246 Z M 315 258 L 313 260 Q 312 262 315 261 L 315 258 Z M 314 263 L 312 265 L 314 265 L 314 263 Z "></path><path fill="rgb(170,132,26)" stroke="rgb(170,132,26)" stroke-width="1" opacity="0.996078431372549" d="M 255.5 247 L 257 249.5 L 256 249.5 L 255.5 247 Z "></path><path fill="rgb(170,132,26)" stroke="rgb(170,132,26)" stroke-width="1" opacity="0.996078431372549" d="M 319.5 259 L 322 263.5 L 320 262.5 L 319.5 259 Z "></path><path fill="rgb(170,132,26)" stroke="rgb(170,132,26)" stroke-width="1" opacity="0.996078431372549" d="M 322.5 265 L 326 271.5 L 324 270.5 L 322.5 265 Z "></path><path fill="rgb(170,132,26)" stroke="rgb(170,132,26)" stroke-width="1" opacity="0.996078431372549" d="M 265.5 269 L 266.5 271 L 265.5 269 Z "></path><path fill="rgb(170,132,26)" stroke="rgb(170,132,26)" stroke-width="1" opacity="0.996078431372549" d="M 322.5 271 L 325 277.5 L 324.5 279 Q 327.8 277.9 327 280.5 L 328 282.5 L 325 286.5 L 329 284.5 L 329 288 Q 331.7 286.9 331 289.5 L 337 302.5 L 336 305.5 L 333.5 310 Q 331.3 310.8 332 308.5 L 333 306 L 330.5 307 L 330 305.5 L 330.5 302 Q 326.8 303.3 328 299.5 L 325 295.5 Q 328.5 294 326 292.5 Q 326.8 290.3 324.5 291 L 322.5 294 L 320 290.5 L 323 291.5 L 324 287.5 Q 320.9 285.8 322.5 284 L 320.5 285 L 319 281.5 L 320 279.5 L 319 275 Q 322 276.3 321 272.5 L 322.5 271 Z M 323 275 L 322 279 L 323 279 L 323 275 Z M 324 280 L 323 283 Q 327 284 326 281 L 324 280 Z "></path><path fill="rgb(170,132,26)" stroke="rgb(170,132,26)" stroke-width="1" opacity="0.996078431372549" d="M 326.5 274 L 329 277.5 L 327 276.5 L 326.5 274 Z "></path><path fill="rgb(170,132,26)" stroke="rgb(170,132,26)" stroke-width="1" opacity="0.996078431372549" d="M 314.5 275 Q 317.5 276.5 314.5 278 L 314.5 275 Z "></path><path fill="rgb(170,132,26)" stroke="rgb(170,132,26)" stroke-width="1" opacity="0.996078431372549" d="M 330.5 282 L 331.5 284 Q 328.7 284.7 330.5 282 Z "></path><path fill="rgb(170,132,26)" stroke="rgb(170,132,26)" stroke-width="1" opacity="0.996078431372549" d="M 318.5 287 L 319 289.5 L 318 289.5 L 318.5 287 Z "></path><path fill="rgb(170,132,26)" stroke="rgb(170,132,26)" stroke-width="1" opacity="0.996078431372549" d="M 275.5 291 L 276.5 293 L 275.5 291 Z "></path><path fill="rgb(170,132,26)" stroke="rgb(170,132,26)" stroke-width="1" opacity="0.996078431372549" d="M 337.5 296 L 339 298.5 L 337 297.5 L 337.5 296 Z "></path><path fill="rgb(170,132,26)" stroke="rgb(170,132,26)" stroke-width="1" opacity="0.996078431372549" d="M 278.5 297 L 280 299.5 L 279 299.5 L 278.5 297 Z "></path></svg>